HWT Etta-East.ufo
<glyph name="exclam" format="2">
	<advance width="250"/>
	<unicode hex="0021"/>
	<outline>
		<contour>
			<point x="100" y="361" type="curve" smooth="yes"/>
			<point x="100" y="250" type="line"/>
			<point x="150" y="250" type="line"/>
			<point x="150" y="361" type="line" smooth="yes"/>
			<point x="150" y="422"/>
			<point x="163" y="458"/>
			<point x="177" y="490" type="curve" smooth="yes"/>
			<point x="189" y="518"/>
			<point x="200" y="545"/>
			<point x="200" y="585" type="curve" smooth="yes"/>
			<point x="200" y="629" type="line" smooth="yes"/>
			<point x="200" y="681"/>
			<point x="187" y="700"/>
			<point x="125" y="700" type="curve" smooth="yes"/>
			<point x="63" y="700"/>
			<point x="50" y="680"/>
			<point x="50" y="629" type="curve" smooth="yes"/>
			<point x="50" y="585" type="line" smooth="yes"/>
			<point x="50" y="545"/>
			<point x="60" y="518"/>
			<point x="72" y="491" type="curve" smooth="yes"/>
			<point x="87" y="458"/>
			<point x="100" y="423"/>
		</contour>
		<contour>
			<point x="110" y="0" type="curve" smooth="yes"/>
			<point x="140" y="0" type="line" smooth="yes"/>
			<point x="182" y="0"/>
			<point x="200" y="18"/>
			<point x="200" y="60" type="curve" smooth="yes"/>
			<point x="200" y="90" type="line" smooth="yes"/>
			<point x="200" y="132"/>
			<point x="182" y="150"/>
			<point x="140" y="150" type="curve" smooth="yes"/>
			<point x="110" y="150" type="line" smooth="yes"/>
			<point x="68" y="150"/>
			<point x="50" y="132"/>
			<point x="50" y="90" type="curve" smooth="yes"/>
			<point x="50" y="60" type="line" smooth="yes"/>
			<point x="50" y="18"/>
			<point x="68" y="0"/>
		</contour>
	</outline>
</glyph>
<glyph name="quotedbl" format="2">
	<advance width="220"/>
	<unicode hex="0022"/>
	<outline>
		<contour>
			<point x="130" y="450" type="line"/>
			<point x="180" y="450" type="line"/>
			<point x="180" y="700" type="line"/>
			<point x="130" y="700" type="line"/>
		</contour>
		<contour>
			<point x="40" y="450" type="line"/>
			<point x="90" y="450" type="line"/>
			<point x="90" y="700" type="line"/>
			<point x="40" y="700" type="line"/>
		</contour>
	</outline>
</glyph>
<glyph name="ampersand" format="2">
	<advance width="417"/>
	<unicode hex="0026"/>
	<outline>
		<contour>
			<point x="192" y="0" type="curve" smooth="yes"/>
			<point x="247" y="0" type="line" smooth="yes"/>
			<point x="319" y="0"/>
			<point x="347" y="28"/>
			<point x="347" y="100" type="curve" smooth="yes"/>
			<point x="347" y="455" type="line"/>
			<point x="297" y="455" type="line"/>
			<point x="297" y="273" type="line" smooth="yes"/>
			<point x="297" y="222"/>
			<point x="283" y="200"/>
			<point x="251" y="200" type="curve" smooth="yes"/>
			<point x="163" y="200" type="line" smooth="yes"/>
			<point x="124" y="200"/>
			<point x="105" y="227"/>
			<point x="105" y="267" type="curve" smooth="yes"/>
			<point x="105" y="277" type="line" smooth="yes"/>
			<point x="105" y="318"/>
			<point x="130" y="335"/>
			<point x="219" y="335" type="curve" smooth="yes"/>
			<point x="417" y="335" type="line"/>
			<point x="417" y="385" type="line"/>
			<point x="219" y="385" type="line" smooth="yes"/>
			<point x="151" y="385"/>
			<point x="120" y="399"/>
			<point x="120" y="450" type="curve" smooth="yes"/>
			<point x="120" y="490"/>
			<point x="141" y="505"/>
			<point x="190" y="505" type="curve" smooth="yes"/>
			<point x="297" y="505" type="line"/>
			<point x="297" y="700" type="line"/>
			<point x="210" y="700" type="line" smooth="yes"/>
			<point x="101" y="700"/>
			<point x="70" y="651"/>
			<point x="70" y="546" type="curve" smooth="yes"/>
			<point x="70" y="450" type="line" smooth="yes"/>
			<point x="70" y="400"/>
			<point x="106" y="366"/>
			<point x="150" y="366" type="curve" smooth="yes"/>
			<point x="154" y="366"/>
			<point x="154" y="361"/>
			<point x="150" y="361" type="curve" smooth="yes"/>
			<point x="116" y="361"/>
			<point x="55" y="333"/>
			<point x="55" y="276" type="curve" smooth="yes"/>
			<point x="55" y="150" type="line" smooth="yes"/>
			<point x="55" y="49"/>
			<point x="86" y="0"/>
		</contour>
	</outline>
</glyph>
<glyph name="quotesingle" format="2">
	<advance width="130"/>
	<unicode hex="0027"/>
	<outline>
		<contour>
			<point x="40" y="450" type="line"/>
			<point x="90" y="450" type="line"/>
			<point x="90" y="700" type="line"/>
			<point x="40" y="700" type="line"/>
		</contour>
	</outline>
</glyph>
<glyph name="parenright" format="2">
	<advance width="230"/>
	<unicode hex="0029"/>
	<outline>
		<contour>
			<point x="10" y="160" type="curve"/>
			<point x="10" y="0" type="line"/>
			<point x="142" y="0"/>
			<point x="210" y="92"/>
			<point x="210" y="350" type="curve" smooth="yes"/>
			<point x="210" y="608"/>
			<point x="142" y="700"/>
			<point x="10" y="700" type="curve"/>
			<point x="10" y="540" type="line"/>
			<point x="125" y="540"/>
			<point x="160" y="500"/>
			<point x="160" y="350" type="curve" smooth="yes"/>
			<point x="160" y="200"/>
			<point x="125" y="160"/>
		</contour>
	</outline>
</glyph>
<glyph name="plus" format="2">
	<advance width="400"/>
	<unicode hex="002B"/>
	<outline>
		<contour>
			<point x="165" y="192" type="line"/>
			<point x="235" y="192" type="line"/>
			<point x="235" y="500" type="line"/>
			<point x="165" y="500" type="line"/>
		</contour>
		<contour>
			<point x="46" y="311" type="line"/>
			<point x="354" y="311" type="line"/>
			<point x="354" y="381" type="line"/>
			<point x="46" y="381" type="line"/>
		</contour>
	</outline>
</glyph>
<glyph name="period" format="2">
	<advance width="230"/>
	<unicode hex="002E"/>
	<outline>
		<contour>
			<point x="100" y="0" type="curve" smooth="yes"/>
			<point x="130" y="0" type="line" smooth="yes"/>
			<point x="172" y="0"/>
			<point x="190" y="18"/>
			<point x="190" y="60" type="curve" smooth="yes"/>
			<point x="190" y="90" type="line" smooth="yes"/>
			<point x="190" y="132"/>
			<point x="172" y="150"/>
			<point x="130" y="150" type="curve" smooth="yes"/>
			<point x="100" y="150" type="line" smooth="yes"/>
			<point x="58" y="150"/>
			<point x="40" y="132"/>
			<point x="40" y="90" type="curve" smooth="yes"/>
			<point x="40" y="60" type="line" smooth="yes"/>
			<point x="40" y="18"/>
			<point x="58" y="0"/>
		</contour>
	</outline>
</glyph>
<glyph name="zero" format="2">
	<advance width="442"/>
	<unicode hex="0030"/>
	<outline>
		<contour>
			<point x="221" y="-10" type="curve" smooth="yes"/>
			<point x="340" y="-10"/>
			<point x="402" y="54"/>
			<point x="402" y="203" type="curve" smooth="yes"/>
			<point x="402" y="497" type="line" smooth="yes"/>
			<point x="402" y="646"/>
			<point x="340" y="710"/>
			<point x="221" y="710" type="curve" smooth="yes"/>
			<point x="102" y="710"/>
			<point x="40" y="646"/>
			<point x="40" y="497" type="curve" smooth="yes"/>
			<point x="40" y="203" type="line" smooth="yes"/>
			<point x="40" y="54"/>
			<point x="102" y="-10"/>
		</contour>
		<contour>
			<point x="221" y="190" type="curve" smooth="yes"/>
			<point x="144" y="190"/>
			<point x="95" y="237"/>
			<point x="95" y="320" type="curve" smooth="yes"/>
			<point x="95" y="380" type="line" smooth="yes"/>
			<point x="95" y="463"/>
			<point x="144" y="510"/>
			<point x="221" y="510" type="curve" smooth="yes"/>
			<point x="298" y="510"/>
			<point x="347" y="463"/>
			<point x="347" y="380" type="curve" smooth="yes"/>
			<point x="347" y="320" type="line" smooth="yes"/>
			<point x="347" y="237"/>
			<point x="298" y="190"/>
		</contour>
	</outline>
</glyph>
<glyph name="one" format="2">
	<advance width="312"/>
	<unicode hex="0031"/>
	<outline>
		<contour>
			<point x="136" y="0" type="curve" smooth="yes"/>
			<point x="194" y="0" type="line" smooth="yes"/>
			<point x="266" y="0"/>
			<point x="302" y="21"/>
			<point x="302" y="94" type="curve" smooth="yes"/>
			<point x="302" y="195" type="line"/>
			<point x="282" y="195" type="line"/>
			<point x="216" y="195"/>
			<point x="200" y="224"/>
			<point x="200" y="286" type="curve" smooth="yes"/>
			<point x="200" y="582" type="line" smooth="yes"/>
			<point x="200" y="669"/>
			<point x="162" y="700"/>
			<point x="117" y="700" type="curve" smooth="yes"/>
			<point x="45" y="700" type="line"/>
			<point x="15" y="500" type="line"/>
			<point x="90" y="500" type="line" smooth="yes"/>
			<point x="132" y="500"/>
			<point x="150" y="483"/>
			<point x="150" y="428" type="curve" smooth="yes"/>
			<point x="150" y="286" type="line" smooth="yes"/>
			<point x="150" y="224"/>
			<point x="134" y="195"/>
			<point x="68" y="195" type="curve"/>
			<point x="28" y="195" type="line"/>
			<point x="28" y="94" type="line" smooth="yes"/>
			<point x="28" y="21"/>
			<point x="64" y="0"/>
		</contour>
	</outline>
</glyph>
<glyph name="two" format="2">
	<advance width="457"/>
	<unicode hex="0032"/>
	<outline>
		<contour>
			<point x="135" y="0" type="curve" smooth="yes"/>
			<point x="327" y="0" type="line" smooth="yes"/>
			<point x="399" y="0"/>
			<point x="427" y="28"/>
			<point x="427" y="100" type="curve" smooth="yes"/>
			<point x="427" y="276" type="line"/>
			<point x="377" y="276" type="line"/>
			<point x="377" y="221"/>
			<point x="361" y="200"/>
			<point x="330" y="200" type="curve" smooth="yes"/>
			<point x="226" y="200" type="line" smooth="yes"/>
			<point x="198" y="200"/>
			<point x="183" y="216"/>
			<point x="183" y="238" type="curve" smooth="yes"/>
			<point x="183" y="250"/>
			<point x="188" y="262"/>
			<point x="200" y="276" type="curve" smooth="yes"/>
			<point x="327" y="421" type="line" smooth="yes"/>
			<point x="387" y="490"/>
			<point x="407" y="533"/>
			<point x="407" y="586" type="curve" smooth="yes"/>
			<point x="407" y="663"/>
			<point x="361" y="700"/>
			<point x="256" y="700" type="curve" smooth="yes"/>
			<point x="135" y="700" type="line" smooth="yes"/>
			<point x="63" y="700"/>
			<point x="35" y="672"/>
			<point x="35" y="600" type="curve" smooth="yes"/>
			<point x="35" y="424" type="line"/>
			<point x="85" y="424" type="line"/>
			<point x="85" y="479"/>
			<point x="99" y="500"/>
			<point x="142" y="500" type="curve" smooth="yes"/>
			<point x="212" y="500" type="line" smooth="yes"/>
			<point x="253" y="500"/>
			<point x="269" y="488"/>
			<point x="269" y="462" type="curve" smooth="yes"/>
			<point x="269" y="441"/>
			<point x="260" y="421"/>
			<point x="239" y="396" type="curve" smooth="yes"/>
			<point x="84" y="218" type="line" smooth="yes"/>
			<point x="42" y="170"/>
			<point x="35" y="154"/>
			<point x="35" y="122" type="curve" smooth="yes"/>
			<point x="35" y="100" type="line" smooth="yes"/>
			<point x="35" y="28"/>
			<point x="63" y="0"/>
		</contour>
	</outline>
</glyph>
<glyph name="three" format="2">
	<advance width="463"/>
	<unicode hex="0033"/>
	<outline>
		<contour>
			<point x="145" y="1" type="curve" smooth="yes"/>
			<point x="248" y="1" type="line" smooth="yes"/>
			<point x="381" y="1"/>
			<point x="423" y="45"/>
			<point x="423" y="172" type="curve" smooth="yes"/>
			<point x="423" y="226" type="line"/>
			<point x="423" y="325"/>
			<point x="381" y="379"/>
			<point x="282" y="379" type="curve" smooth="yes"/>
			<point x="278" y="379"/>
			<point x="276" y="380"/>
			<point x="276" y="383" type="curve" smooth="yes"/>
			<point x="276" y="386"/>
			<point x="278" y="389"/>
			<point x="286" y="398" type="curve" smooth="yes"/>
			<point x="360" y="482" type="line" smooth="yes"/>
			<point x="402" y="530"/>
			<point x="409" y="546"/>
			<point x="409" y="576" type="curve" smooth="yes"/>
			<point x="409" y="601" type="line" smooth="yes"/>
			<point x="409" y="672"/>
			<point x="391" y="700"/>
			<point x="319" y="700" type="curve" smooth="yes"/>
			<point x="145" y="700" type="line" smooth="yes"/>
			<point x="73" y="700"/>
			<point x="45" y="671"/>
			<point x="45" y="599" type="curve" smooth="yes"/>
			<point x="45" y="429" type="line"/>
			<point x="95" y="429" type="line"/>
			<point x="95" y="484"/>
			<point x="109" y="505"/>
			<point x="152" y="505" type="curve" smooth="yes"/>
			<point x="232" y="505" type="line" smooth="yes"/>
			<point x="257" y="505"/>
			<point x="269" y="493"/>
			<point x="269" y="473" type="curve" smooth="yes"/>
			<point x="269" y="462"/>
			<point x="262" y="446"/>
			<point x="249" y="431" type="curve" smooth="yes"/>
			<point x="189" y="362" type="line"/>
			<point x="205" y="332" type="line"/>
			<point x="265" y="332" type="line" smooth="yes"/>
			<point x="344" y="332"/>
			<point x="362" y="308"/>
			<point x="362" y="268" type="curve" smooth="yes"/>
			<point x="362" y="218"/>
			<point x="325" y="201"/>
			<point x="254" y="201" type="curve" smooth="yes"/>
			<point x="142" y="201" type="line" smooth="yes"/>
			<point x="111" y="201"/>
			<point x="95" y="222"/>
			<point x="95" y="277" type="curve"/>
			<point x="45" y="277" type="line"/>
			<point x="45" y="101" type="line" smooth="yes"/>
			<point x="45" y="29"/>
			<point x="73" y="1"/>
		</contour>
	</outline>
</glyph>
<glyph name="four" format="2">
	<advance width="476"/>
	<unicode hex="0034"/>
	<outline>
		<contour>
			<point x="262" y="451" type="curve" smooth="yes"/>
			<point x="262" y="0" type="line"/>
			<point x="312" y="0" type="line"/>
			<point x="312" y="657" type="line" smooth="yes"/>
			<point x="312" y="690"/>
			<point x="301" y="705"/>
			<point x="278" y="705" type="curve" smooth="yes"/>
			<point x="255" y="705"/>
			<point x="242" y="693"/>
			<point x="216" y="637" type="curve" smooth="yes"/>
			<point x="46" y="266" type="line" smooth="yes"/>
			<point x="20" y="208"/>
			<point x="10" y="174"/>
			<point x="10" y="148" type="curve" smooth="yes"/>
			<point x="10" y="118"/>
			<point x="29" y="101"/>
			<point x="62" y="101" type="curve" smooth="yes"/>
			<point x="351" y="101" type="line" smooth="yes"/>
			<point x="423" y="101"/>
			<point x="451" y="129"/>
			<point x="451" y="201" type="curve" smooth="yes"/>
			<point x="451" y="372" type="line"/>
			<point x="401" y="372" type="line"/>
			<point x="401" y="317"/>
			<point x="387" y="296"/>
			<point x="344" y="296" type="curve" smooth="yes"/>
			<point x="168" y="296" type="line" smooth="yes"/>
			<point x="143" y="296"/>
			<point x="134" y="304"/>
			<point x="134" y="318" type="curve" smooth="yes"/>
			<point x="134" y="329"/>
			<point x="137" y="342"/>
			<point x="142" y="354" type="curve" smooth="yes"/>
			<point x="188" y="456" type="line" smooth="yes"/>
			<point x="206" y="497"/>
			<point x="216" y="508"/>
			<point x="234" y="508" type="curve" smooth="yes"/>
			<point x="252" y="508"/>
			<point x="262" y="493"/>
		</contour>
	</outline>
</glyph>
<glyph name="five" format="2">
	<advance width="418"/>
	<unicode hex="0035"/>
	<outline>
		<contour>
			<point x="150" y="0" type="curve" smooth="yes"/>
			<point x="208" y="0" type="line" smooth="yes"/>
			<point x="341" y="0"/>
			<point x="383" y="44"/>
			<point x="383" y="171" type="curve" smooth="yes"/>
			<point x="383" y="276" type="line" smooth="yes"/>
			<point x="383" y="375"/>
			<point x="327" y="405"/>
			<point x="219" y="405" type="curve" smooth="yes"/>
			<point x="120" y="405" type="line"/>
			<point x="120" y="546" type="line"/>
			<point x="96" y="500" type="line"/>
			<point x="265" y="500" type="line" smooth="yes"/>
			<point x="334" y="500"/>
			<point x="365" y="536"/>
			<point x="365" y="591" type="curve" smooth="yes"/>
			<point x="365" y="762" type="line"/>
			<point x="315" y="762" type="line"/>
			<point x="315" y="735" type="line" smooth="yes"/>
			<point x="315" y="708"/>
			<point x="307" y="700"/>
			<point x="268" y="700" type="curve" smooth="yes"/>
			<point x="170" y="700" type="line" smooth="yes"/>
			<point x="98" y="700"/>
			<point x="70" y="672"/>
			<point x="70" y="600" type="curve" smooth="yes"/>
			<point x="70" y="355" type="line"/>
			<point x="219" y="355" type="line" smooth="yes"/>
			<point x="308" y="355"/>
			<point x="333" y="338"/>
			<point x="333" y="277" type="curve" smooth="yes"/>
			<point x="333" y="267" type="line" smooth="yes"/>
			<point x="333" y="227"/>
			<point x="314" y="200"/>
			<point x="275" y="200" type="curve" smooth="yes"/>
			<point x="190" y="200" type="line" smooth="yes"/>
			<point x="141" y="200"/>
			<point x="100" y="210"/>
			<point x="100" y="260" type="curve" smooth="yes"/>
			<point x="100" y="281" type="line"/>
			<point x="50" y="281" type="line"/>
			<point x="50" y="100" type="line" smooth="yes"/>
			<point x="50" y="28"/>
			<point x="78" y="0"/>
		</contour>
	</outline>
</glyph>
<glyph name="six" format="2">
	<advance width="445"/>
	<unicode hex="0036"/>
	<outline>
		<contour>
			<point x="225" y="-10" type="curve" smooth="yes"/>
			<point x="358" y="-10"/>
			<point x="400" y="34"/>
			<point x="400" y="161" type="curve" smooth="yes"/>
			<point x="400" y="270" type="line" smooth="yes"/>
			<point x="400" y="326"/>
			<point x="367" y="355"/>
			<point x="305" y="355" type="curve" smooth="yes"/>
			<point x="91" y="355" type="line"/>
			<point x="91" y="305" type="line"/>
			<point x="305" y="305" type="line" smooth="yes"/>
			<point x="340" y="305"/>
			<point x="350" y="297"/>
			<point x="350" y="270" type="curve" smooth="yes"/>
			<point x="350" y="218"/>
			<point x="316" y="190"/>
			<point x="248" y="190" type="curve" smooth="yes"/>
			<point x="207" y="190" type="line" smooth="yes"/>
			<point x="136" y="190"/>
			<point x="105" y="217"/>
			<point x="105" y="320" type="curve" smooth="yes"/>
			<point x="105" y="385" type="line" smooth="yes"/>
			<point x="105" y="473"/>
			<point x="136" y="510"/>
			<point x="208" y="510" type="curve" smooth="yes"/>
			<point x="242" y="510" type="line" smooth="yes"/>
			<point x="314" y="510"/>
			<point x="350" y="475"/>
			<point x="350" y="410" type="curve"/>
			<point x="400" y="410" type="line"/>
			<point x="400" y="539" type="line" smooth="yes"/>
			<point x="400" y="666"/>
			<point x="358" y="710"/>
			<point x="225" y="710" type="curve" smooth="yes"/>
			<point x="122" y="710"/>
			<point x="50" y="666"/>
			<point x="50" y="517" type="curve" smooth="yes"/>
			<point x="50" y="183" type="line" smooth="yes"/>
			<point x="50" y="34"/>
			<point x="122" y="-10"/>
		</contour>
	</outline>
</glyph>
<glyph name="seven" format="2">
	<advance width="401"/>
	<unicode hex="0037"/>
	<outline>
		<contour>
			<point x="205" y="0" type="curve" smooth="yes"/>
			<point x="340" y="0" type="line"/>
			<point x="340" y="48" type="line"/>
			<point x="271" y="76"/>
			<point x="246" y="128"/>
			<point x="246" y="226" type="curve" smooth="yes"/>
			<point x="246" y="296"/>
			<point x="266" y="368"/>
			<point x="313" y="430" type="curve" smooth="yes"/>
			<point x="372" y="509"/>
			<point x="386" y="539"/>
			<point x="386" y="569" type="curve" smooth="yes"/>
			<point x="386" y="601" type="line" smooth="yes"/>
			<point x="386" y="672"/>
			<point x="368" y="700"/>
			<point x="296" y="700" type="curve" smooth="yes"/>
			<point x="130" y="700" type="line" smooth="yes"/>
			<point x="58" y="700"/>
			<point x="30" y="672"/>
			<point x="30" y="600" type="curve" smooth="yes"/>
			<point x="30" y="410" type="line"/>
			<point x="80" y="410" type="line"/>
			<point x="80" y="482"/>
			<point x="94" y="500"/>
			<point x="141" y="500" type="curve" smooth="yes"/>
			<point x="254" y="500" type="line" smooth="yes"/>
			<point x="275" y="500"/>
			<point x="281" y="495"/>
			<point x="281" y="482" type="curve" smooth="yes"/>
			<point x="281" y="474"/>
			<point x="277" y="464"/>
			<point x="267" y="452" type="curve" smooth="yes"/>
			<point x="128" y="283"/>
			<point x="89" y="199"/>
			<point x="89" y="119" type="curve" smooth="yes"/>
			<point x="89" y="38"/>
			<point x="128" y="0"/>
		</contour>
	</outline>
</glyph>
<glyph name="eight" format="2">
	<advance width="450"/>
	<unicode hex="0038"/>
	<outline>
		<contour>
			<point x="225" y="-10" type="curve" smooth="yes"/>
			<point x="350" y="-10"/>
			<point x="400" y="31"/>
			<point x="400" y="124" type="curve" smooth="yes"/>
			<point x="400" y="255" type="line" smooth="yes"/>
			<point x="400" y="313"/>
			<point x="387" y="335"/>
			<point x="346" y="352" type="curve" smooth="yes"/>
			<point x="340" y="355"/>
			<point x="340" y="359"/>
			<point x="346" y="362" type="curve" smooth="yes"/>
			<point x="387" y="378"/>
			<point x="400" y="398"/>
			<point x="400" y="453" type="curve" smooth="yes"/>
			<point x="400" y="576" type="line" smooth="yes"/>
			<point x="400" y="669"/>
			<point x="350" y="710"/>
			<point x="225" y="710" type="curve" smooth="yes"/>
			<point x="100" y="710"/>
			<point x="50" y="669"/>
			<point x="50" y="576" type="curve" smooth="yes"/>
			<point x="50" y="453" type="line" smooth="yes"/>
			<point x="50" y="398"/>
			<point x="63" y="378"/>
			<point x="104" y="362" type="curve" smooth="yes"/>
			<point x="110" y="359"/>
			<point x="110" y="355"/>
			<point x="104" y="352" type="curve" smooth="yes"/>
			<point x="63" y="335"/>
			<point x="50" y="313"/>
			<point x="50" y="255" type="curve" smooth="yes"/>
			<point x="50" y="124" type="line" smooth="yes"/>
			<point x="50" y="31"/>
			<point x="100" y="-10"/>
		</contour>
		<contour>
			<point x="248" y="190" type="curve" smooth="yes"/>
			<point x="202" y="190" type="line"/>
			<point x="134" y="190"/>
			<point x="100" y="218"/>
			<point x="100" y="265" type="curve" smooth="yes"/>
			<point x="100" y="315"/>
			<point x="130" y="333"/>
			<point x="185" y="333" type="curve" smooth="yes"/>
			<point x="265" y="333" type="line" smooth="yes"/>
			<point x="320" y="333"/>
			<point x="350" y="315"/>
			<point x="350" y="265" type="curve" smooth="yes"/>
			<point x="350" y="218"/>
			<point x="316" y="190"/>
		</contour>
		<contour>
			<point x="265" y="383" type="curve" smooth="yes"/>
			<point x="185" y="383" type="line"/>
			<point x="130" y="383"/>
			<point x="100" y="401"/>
			<point x="100" y="443" type="curve" smooth="yes"/>
			<point x="100" y="484"/>
			<point x="134" y="510"/>
			<point x="202" y="510" type="curve" smooth="yes"/>
			<point x="248" y="510" type="line" smooth="yes"/>
			<point x="316" y="510"/>
			<point x="350" y="484"/>
			<point x="350" y="443" type="curve" smooth="yes"/>
			<point x="350" y="401"/>
			<point x="320" y="383"/>
		</contour>
	</outline>
</glyph>
<glyph name="nine" format="2">
	<advance width="445"/>
	<unicode hex="0039"/>
	<outline>
		<contour>
			<point x="220" y="-10" type="curve" smooth="yes"/>
			<point x="323" y="-10"/>
			<point x="395" y="34"/>
			<point x="395" y="183" type="curve" smooth="yes"/>
			<point x="395" y="517" type="line" smooth="yes"/>
			<point x="395" y="666"/>
			<point x="323" y="710"/>
			<point x="220" y="710" type="curve" smooth="yes"/>
			<point x="87" y="710"/>
			<point x="45" y="666"/>
			<point x="45" y="539" type="curve" smooth="yes"/>
			<point x="45" y="430" type="line" smooth="yes"/>
			<point x="45" y="374"/>
			<point x="78" y="345"/>
			<point x="140" y="345" type="curve" smooth="yes"/>
			<point x="354" y="345" type="line"/>
			<point x="354" y="395" type="line"/>
			<point x="140" y="395" type="line" smooth="yes"/>
			<point x="105" y="395"/>
			<point x="95" y="403"/>
			<point x="95" y="430" type="curve" smooth="yes"/>
			<point x="95" y="482"/>
			<point x="129" y="510"/>
			<point x="197" y="510" type="curve" smooth="yes"/>
			<point x="238" y="510" type="line" smooth="yes"/>
			<point x="309" y="510"/>
			<point x="340" y="483"/>
			<point x="340" y="380" type="curve" smooth="yes"/>
			<point x="340" y="315" type="line" smooth="yes"/>
			<point x="340" y="227"/>
			<point x="309" y="190"/>
			<point x="237" y="190" type="curve" smooth="yes"/>
			<point x="203" y="190" type="line" smooth="yes"/>
			<point x="131" y="190"/>
			<point x="95" y="225"/>
			<point x="95" y="290" type="curve"/>
			<point x="45" y="290" type="line"/>
			<point x="45" y="161" type="line" smooth="yes"/>
			<point x="45" y="34"/>
			<point x="87" y="-10"/>
		</contour>
	</outline>
</glyph>
<glyph name="at" format="2">
	<advance width="547"/>
	<unicode hex="0040"/>
	<outline>
		<contour>
			<point x="262" y="-10" type="curve" smooth="yes"/>
			<point x="334" y="-10"/>
			<point x="384" y="-1"/>
			<point x="442" y="20" type="curve"/>
			<point x="433" y="120" type="line"/>
			<point x="384" y="103"/>
			<point x="319" y="90"/>
			<point x="273" y="90" type="curve" smooth="yes"/>
			<point x="157" y="90"/>
			<point x="99" y="138"/>
			<point x="99" y="247" type="curve" smooth="yes"/>
			<point x="99" y="444" type="line" smooth="yes"/>
			<point x="99" y="560"/>
			<point x="147" y="610"/>
			<point x="272" y="610" type="curve" smooth="yes"/>
			<point x="385" y="610"/>
			<point x="447" y="567"/>
			<point x="447" y="444" type="curve" smooth="yes"/>
			<point x="447" y="283" type="line" smooth="yes"/>
			<point x="447" y="241"/>
			<point x="432" y="224"/>
			<point x="409" y="224" type="curve" smooth="yes"/>
			<point x="386" y="224"/>
			<point x="372" y="240"/>
			<point x="372" y="283" type="curve" smooth="yes"/>
			<point x="372" y="429" type="line" smooth="yes"/>
			<point x="372" y="487"/>
			<point x="332" y="522"/>
			<point x="278" y="522" type="curve" smooth="yes"/>
			<point x="218" y="522"/>
			<point x="184" y="487"/>
			<point x="184" y="407" type="curve" smooth="yes"/>
			<point x="184" y="386" type="line"/>
			<point x="219" y="386" type="line"/>
			<point x="223" y="404"/>
			<point x="237" y="414"/>
			<point x="275" y="414" type="curve" smooth="yes"/>
			<point x="319" y="414"/>
			<point x="332" y="398"/>
			<point x="332" y="363" type="curve" smooth="yes"/>
			<point x="332" y="321" type="line" smooth="yes"/>
			<point x="332" y="296"/>
			<point x="318" y="280"/>
			<point x="264" y="280" type="curve" smooth="yes"/>
			<point x="225" y="280"/>
			<point x="214" y="290"/>
			<point x="214" y="305" type="curve" smooth="yes"/>
			<point x="214" y="322"/>
			<point x="226" y="330"/>
			<point x="254" y="330" type="curve" smooth="yes"/>
			<point x="345" y="330" type="line"/>
			<point x="345" y="365" type="line"/>
			<point x="254" y="365" type="line" smooth="yes"/>
			<point x="196" y="365"/>
			<point x="174" y="335"/>
			<point x="174" y="297" type="curve" smooth="yes"/>
			<point x="174" y="274" type="line" smooth="yes"/>
			<point x="174" y="209"/>
			<point x="200" y="172"/>
			<point x="259" y="172" type="curve" smooth="yes"/>
			<point x="301" y="172"/>
			<point x="338" y="193"/>
			<point x="338" y="233" type="curve" smooth="yes"/>
			<point x="338" y="241"/>
			<point x="348" y="241"/>
			<point x="348" y="233" type="curve" smooth="yes"/>
			<point x="348" y="193"/>
			<point x="378" y="172"/>
			<point x="412" y="172" type="curve" smooth="yes"/>
			<point x="462" y="172"/>
			<point x="497" y="204"/>
			<point x="497" y="283" type="curve" smooth="yes"/>
			<point x="497" y="487" type="line" smooth="yes"/>
			<point x="497" y="626"/>
			<point x="427" y="710"/>
			<point x="276" y="710" type="curve" smooth="yes"/>
			<point x="115" y="710"/>
			<point x="50" y="626"/>
			<point x="50" y="487" type="curve" smooth="yes"/>
			<point x="50" y="193" type="line" smooth="yes"/>
			<point x="50" y="87"/>
			<point x="114" y="-10"/>
		</contour>
	</outline>
</glyph>
<glyph name="A" format="2">
	<advance width="440"/>
	<unicode hex="0041"/>
	<anchor x="220" y="0" name="bottom"/>
	<anchor x="423" y="0" name="ogonek"/>
	<anchor x="220" y="700" name="top"/>
	<outline>
		<contour>
			<point x="100" y="0" type="curve" smooth="yes"/>
			<point x="180" y="0" type="line"/>
			<point x="180" y="200" type="line"/>
			<point x="136" y="200" type="line" smooth="yes"/>
			<point x="112" y="200"/>
			<point x="98" y="213"/>
			<point x="98" y="239" type="curve" smooth="yes"/>
			<point x="98" y="249"/>
			<point x="101" y="261"/>
			<point x="105" y="275" type="curve" smooth="yes"/>
			<point x="143" y="406" type="line" smooth="yes"/>
			<point x="162" y="473"/>
			<point x="182" y="490"/>
			<point x="220" y="490" type="curve" smooth="yes"/>
			<point x="258" y="490"/>
			<point x="278" y="473"/>
			<point x="297" y="406" type="curve" smooth="yes"/>
			<point x="335" y="275" type="line" smooth="yes"/>
			<point x="339" y="261"/>
			<point x="342" y="249"/>
			<point x="342" y="239" type="curve" smooth="yes"/>
			<point x="342" y="213"/>
			<point x="328" y="200"/>
			<point x="304" y="200" type="curve" smooth="yes"/>
			<point x="260" y="200" type="line"/>
			<point x="260" y="0" type="line"/>
			<point x="340" y="0" type="line" smooth="yes"/>
			<point x="403" y="0"/>
			<point x="430" y="35"/>
			<point x="430" y="87" type="curve" smooth="yes"/>
			<point x="430" y="115"/>
			<point x="426" y="137"/>
			<point x="413" y="183" type="curve" smooth="yes"/>
			<point x="296" y="590" type="line" smooth="yes"/>
			<point x="268" y="688"/>
			<point x="250" y="710"/>
			<point x="220" y="710" type="curve" smooth="yes"/>
			<point x="190" y="710"/>
			<point x="172" y="688"/>
			<point x="144" y="590" type="curve" smooth="yes"/>
			<point x="27" y="183" type="line" smooth="yes"/>
			<point x="14" y="137"/>
			<point x="10" y="115"/>
			<point x="10" y="87" type="curve" smooth="yes"/>
			<point x="10" y="35"/>
			<point x="37" y="0"/>
		</contour>
		<contour>
			<point x="87" y="294" type="line"/>
			<point x="353" y="294" type="line"/>
			<point x="353" y="344" type="line"/>
			<point x="87" y="344" type="line"/>
		</contour>
	</outline>
</glyph>
<glyph name="B" format="2">
	<advance width="443"/>
	<unicode hex="0042"/>
	<outline>
		<contour>
			<point x="155" y="0" type="curve" smooth="yes"/>
			<point x="247" y="0" type="line" smooth="yes"/>
			<point x="358" y="0"/>
			<point x="408" y="41"/>
			<point x="408" y="134" type="curve" smooth="yes"/>
			<point x="408" y="276" type="line" smooth="yes"/>
			<point x="408" y="333"/>
			<point x="373" y="361"/>
			<point x="313" y="361" type="curve" smooth="yes"/>
			<point x="309" y="361"/>
			<point x="309" y="366"/>
			<point x="313" y="366" type="curve" smooth="yes"/>
			<point x="367" y="366"/>
			<point x="393" y="396"/>
			<point x="393" y="450" type="curve" smooth="yes"/>
			<point x="393" y="566" type="line" smooth="yes"/>
			<point x="393" y="659"/>
			<point x="343" y="700"/>
			<point x="232" y="700" type="curve" smooth="yes"/>
			<point x="155" y="700" type="line" smooth="yes"/>
			<point x="83" y="700"/>
			<point x="55" y="672"/>
			<point x="55" y="600" type="curve" smooth="yes"/>
			<point x="55" y="100" type="line" smooth="yes"/>
			<point x="55" y="28"/>
			<point x="83" y="0"/>
		</contour>
		<contour>
			<point x="290" y="200" type="curve" smooth="yes"/>
			<point x="175" y="200" type="line"/>
			<point x="121" y="200"/>
			<point x="105" y="221"/>
			<point x="105" y="290" type="curve" smooth="yes"/>
			<point x="105" y="410" type="line" smooth="yes"/>
			<point x="105" y="480"/>
			<point x="121" y="500"/>
			<point x="175" y="500" type="curve" smooth="yes"/>
			<point x="273" y="500" type="line" smooth="yes"/>
			<point x="322" y="500"/>
			<point x="343" y="485"/>
			<point x="343" y="446" type="curve" smooth="yes"/>
			<point x="343" y="403"/>
			<point x="322" y="385"/>
			<point x="244" y="385" type="curve" smooth="yes"/>
			<point x="96" y="385" type="line"/>
			<point x="96" y="335" type="line"/>
			<point x="244" y="335" type="line" smooth="yes"/>
			<point x="333" y="335"/>
			<point x="358" y="318"/>
			<point x="358" y="272" type="curve" smooth="yes"/>
			<point x="358" y="223"/>
			<point x="339" y="200"/>
		</contour>
	</outline>
</glyph>
<glyph name="C" format="2">
	<advance width="442"/>
	<unicode hex="0043"/>
	<anchor x="222" y="0" name="bottom"/>
	<anchor x="222" y="700" name="top"/>
	<outline>
		<contour>
			<point x="236" y="-10" type="curve" smooth="yes"/>
			<point x="347" y="-10"/>
			<point x="397" y="31"/>
			<point x="397" y="124" type="curve" smooth="yes"/>
			<point x="397" y="295" type="line"/>
			<point x="347" y="295" type="line"/>
			<point x="347" y="280" type="line" smooth="yes"/>
			<point x="347" y="218"/>
			<point x="313" y="190"/>
			<point x="242" y="190" type="curve" smooth="yes"/>
			<point x="216" y="190" type="line" smooth="yes"/>
			<point x="136" y="190"/>
			<point x="100" y="227"/>
			<point x="100" y="315" type="curve" smooth="yes"/>
			<point x="100" y="385" type="line" smooth="yes"/>
			<point x="100" y="473"/>
			<point x="136" y="510"/>
			<point x="216" y="510" type="curve" smooth="yes"/>
			<point x="242" y="510" type="line" smooth="yes"/>
			<point x="313" y="510"/>
			<point x="347" y="482"/>
			<point x="347" y="420" type="curve" smooth="yes"/>
			<point x="347" y="405" type="line"/>
			<point x="397" y="405" type="line"/>
			<point x="397" y="576" type="line" smooth="yes"/>
			<point x="397" y="669"/>
			<point x="347" y="710"/>
			<point x="236" y="710" type="curve" smooth="yes"/>
			<point x="106" y="710"/>
			<point x="50" y="656"/>
			<point x="50" y="537" type="curve" smooth="yes"/>
			<point x="50" y="163" type="line" smooth="yes"/>
			<point x="50" y="44"/>
			<point x="106" y="-10"/>
		</contour>
	</outline>
</glyph>
<glyph name="D" format="2">
	<advance width="450"/>
	<unicode hex="0044"/>
	<anchor x="225" y="0" name="bottom"/>
	<anchor x="225" y="350" name="center"/>
	<anchor x="225" y="700" name="top"/>
	<outline>
		<contour>
			<point x="155" y="0" type="curve" smooth="yes"/>
			<point x="224" y="0" type="line" smooth="yes"/>
			<point x="353" y="0"/>
			<point x="420" y="89"/>
			<point x="420" y="278" type="curve" smooth="yes"/>
			<point x="420" y="422" type="line" smooth="yes"/>
			<point x="420" y="611"/>
			<point x="353" y="700"/>
			<point x="224" y="700" type="curve" smooth="yes"/>
			<point x="155" y="700" type="line" smooth="yes"/>
			<point x="83" y="700"/>
			<point x="55" y="672"/>
			<point x="55" y="600" type="curve" smooth="yes"/>
			<point x="55" y="100" type="line" smooth="yes"/>
			<point x="55" y="28"/>
			<point x="83" y="0"/>
		</contour>
		<contour>
			<point x="229" y="200" type="curve" smooth="yes"/>
			<point x="175" y="200" type="line"/>
			<point x="121" y="200"/>
			<point x="105" y="221"/>
			<point x="105" y="290" type="curve" smooth="yes"/>
			<point x="105" y="410" type="line" smooth="yes"/>
			<point x="105" y="480"/>
			<point x="121" y="500"/>
			<point x="175" y="500" type="curve" smooth="yes"/>
			<point x="229" y="500" type="line" smooth="yes"/>
			<point x="313" y="500"/>
			<point x="370" y="454"/>
			<point x="370" y="355" type="curve" smooth="yes"/>
			<point x="370" y="340" type="line" smooth="yes"/>
			<point x="370" y="241"/>
			<point x="313" y="200"/>
		</contour>
	</outline>
</glyph>
<glyph name="E" format="2">
	<advance width="424"/>
	<unicode hex="0045"/>
	<anchor x="219" y="0" name="bottom"/>
	<anchor x="390" y="0" name="ogonek"/>
	<anchor x="219" y="700" name="top"/>
	<anchor x="20" y="700" name="topleft"/>
	<outline>
		<contour>
			<point x="155" y="0" type="curve" smooth="yes"/>
			<point x="286" y="0" type="line" smooth="yes"/>
			<point x="362" y="0"/>
			<point x="384" y="40"/>
			<point x="384" y="95" type="curve" smooth="yes"/>
			<point x="384" y="290" type="line"/>
			<point x="334" y="290" type="line"/>
			<point x="334" y="220"/>
			<point x="318" y="200"/>
			<point x="264" y="200" type="curve" smooth="yes"/>
			<point x="175" y="200" type="line" smooth="yes"/>
			<point x="121" y="200"/>
			<point x="105" y="221"/>
			<point x="105" y="290" type="curve" smooth="yes"/>
			<point x="105" y="410" type="line" smooth="yes"/>
			<point x="105" y="480"/>
			<point x="121" y="500"/>
			<point x="175" y="500" type="curve" smooth="yes"/>
			<point x="264" y="500" type="line" smooth="yes"/>
			<point x="318" y="500"/>
			<point x="334" y="480"/>
			<point x="334" y="415" type="curve"/>
			<point x="384" y="415" type="line"/>
			<point x="384" y="606" type="line" smooth="yes"/>
			<point x="384" y="671"/>
			<point x="363" y="700"/>
			<point x="294" y="700" type="curve" smooth="yes"/>
			<point x="155" y="700" type="line" smooth="yes"/>
			<point x="83" y="700"/>
			<point x="55" y="671"/>
			<point x="55" y="600" type="curve" smooth="yes"/>
			<point x="55" y="100" type="line" smooth="yes"/>
			<point x="55" y="28"/>
			<point x="83" y="0"/>
		</contour>
		<contour>
			<point x="86" y="335" type="line"/>
			<point x="274" y="335" type="line"/>
			<point x="274" y="385" type="line"/>
			<point x="86" y="385" type="line"/>
		</contour>
	</outline>
</glyph>
<glyph name="F" format="2">
	<advance width="383"/>
	<unicode hex="0046"/>
	<outline>
		<contour>
			<point x="155" y="0" type="curve" smooth="yes"/>
			<point x="215" y="0" type="line"/>
			<point x="215" y="200" type="line"/>
			<point x="175" y="200" type="line" smooth="yes"/>
			<point x="121" y="200"/>
			<point x="105" y="221"/>
			<point x="105" y="290" type="curve" smooth="yes"/>
			<point x="105" y="410" type="line" smooth="yes"/>
			<point x="105" y="480"/>
			<point x="121" y="500"/>
			<point x="175" y="500" type="curve" smooth="yes"/>
			<point x="243" y="500" type="line" smooth="yes"/>
			<point x="297" y="500"/>
			<point x="313" y="480"/>
			<point x="313" y="410" type="curve" smooth="yes"/>
			<point x="313" y="405" type="line"/>
			<point x="363" y="405" type="line"/>
			<point x="363" y="606" type="line" smooth="yes"/>
			<point x="363" y="671"/>
			<point x="342" y="700"/>
			<point x="273" y="700" type="curve" smooth="yes"/>
			<point x="155" y="700" type="line" smooth="yes"/>
			<point x="83" y="700"/>
			<point x="55" y="672"/>
			<point x="55" y="600" type="curve" smooth="yes"/>
			<point x="55" y="100" type="line" smooth="yes"/>
			<point x="55" y="28"/>
			<point x="83" y="0"/>
		</contour>
		<contour>
			<point x="86" y="321" type="line"/>
			<point x="265" y="321" type="line"/>
			<point x="265" y="371" type="line"/>
			<point x="86" y="371" type="line"/>
		</contour>
	</outline>
</glyph>
<glyph name="G" format="2">
	<advance width="467"/>
	<unicode hex="0047"/>
	<anchor x="234" y="0" name="bottom"/>
	<anchor x="234" y="700" name="top"/>
	<outline>
		<contour>
			<point x="241" y="-10" type="curve" smooth="yes"/>
			<point x="367" y="-10"/>
			<point x="417" y="31"/>
			<point x="417" y="124" type="curve" smooth="yes"/>
			<point x="417" y="355" type="line"/>
			<point x="212" y="355" type="line"/>
			<point x="212" y="305" type="line"/>
			<point x="322" y="305" type="line" smooth="yes"/>
			<point x="357" y="305"/>
			<point x="367" y="297"/>
			<point x="367" y="270" type="curve" smooth="yes"/>
			<point x="367" y="218"/>
			<point x="333" y="190"/>
			<point x="262" y="190" type="curve" smooth="yes"/>
			<point x="216" y="190" type="line" smooth="yes"/>
			<point x="136" y="190"/>
			<point x="100" y="227"/>
			<point x="100" y="315" type="curve" smooth="yes"/>
			<point x="100" y="385" type="line" smooth="yes"/>
			<point x="100" y="473"/>
			<point x="136" y="510"/>
			<point x="216" y="510" type="curve" smooth="yes"/>
			<point x="262" y="510" type="line" smooth="yes"/>
			<point x="333" y="510"/>
			<point x="367" y="482"/>
			<point x="367" y="430" type="curve" smooth="yes"/>
			<point x="367" y="410" type="line"/>
			<point x="417" y="410" type="line"/>
			<point x="417" y="576" type="line" smooth="yes"/>
			<point x="417" y="669"/>
			<point x="367" y="710"/>
			<point x="241" y="710" type="curve" smooth="yes"/>
			<point x="106" y="710"/>
			<point x="50" y="656"/>
			<point x="50" y="537" type="curve" smooth="yes"/>
			<point x="50" y="163" type="line" smooth="yes"/>
			<point x="50" y="44"/>
			<point x="106" y="-10"/>
		</contour>
	</outline>
</glyph>
<glyph name="I" format="2">
	<advance width="314"/>
	<unicode hex="0049"/>
	<anchor x="157" y="0" name="bottom"/>
	<anchor x="276" y="0" name="ogonek"/>
	<anchor x="157" y="700" name="top"/>
	<anchor x="20" y="700" name="topleft"/>
	<outline>
		<contour>
			<point x="138" y="0" type="curve" smooth="yes"/>
			<point x="176" y="0" type="line" smooth="yes"/>
			<point x="248" y="0"/>
			<point x="284" y="21"/>
			<point x="284" y="94" type="curve" smooth="yes"/>
			<point x="284" y="200" type="line"/>
			<point x="264" y="200" type="line"/>
			<point x="198" y="200"/>
			<point x="182" y="229"/>
			<point x="182" y="291" type="curve" smooth="yes"/>
			<point x="182" y="409" type="line" smooth="yes"/>
			<point x="182" y="471"/>
			<point x="198" y="500"/>
			<point x="264" y="500" type="curve"/>
			<point x="284" y="500" type="line"/>
			<point x="284" y="606" type="line" smooth="yes"/>
			<point x="284" y="679"/>
			<point x="248" y="700"/>
			<point x="176" y="700" type="curve" smooth="yes"/>
			<point x="138" y="700" type="line" smooth="yes"/>
			<point x="66" y="700"/>
			<point x="30" y="679"/>
			<point x="30" y="606" type="curve" smooth="yes"/>
			<point x="30" y="500" type="line"/>
			<point x="50" y="500" type="line"/>
			<point x="116" y="500"/>
			<point x="132" y="471"/>
			<point x="132" y="409" type="curve" smooth="yes"/>
			<point x="132" y="291" type="line" smooth="yes"/>
			<point x="132" y="229"/>
			<point x="116" y="200"/>
			<point x="50" y="200" type="curve"/>
			<point x="30" y="200" type="line"/>
			<point x="30" y="94" type="line" smooth="yes"/>
			<point x="30" y="21"/>
			<point x="66" y="0"/>
		</contour>
	</outline>
</glyph>
<glyph name="J" format="2">
	<advance width="332"/>
	<unicode hex="004A"/>
	<outline>
		<contour>
			<point x="118" y="0" type="curve" smooth="yes"/>
			<point x="177" y="0" type="line" smooth="yes"/>
			<point x="249" y="0"/>
			<point x="277" y="28"/>
			<point x="277" y="100" type="curve" smooth="yes"/>
			<point x="277" y="600" type="line" smooth="yes"/>
			<point x="277" y="672"/>
			<point x="249" y="700"/>
			<point x="177" y="700" type="curve" smooth="yes"/>
			<point x="137" y="700" type="line"/>
			<point x="137" y="500" type="line"/>
			<point x="161" y="500" type="line" smooth="yes"/>
			<point x="209" y="500"/>
			<point x="227" y="481"/>
			<point x="227" y="413" type="curve" smooth="yes"/>
			<point x="227" y="275" type="line" smooth="yes"/>
			<point x="227" y="224"/>
			<point x="206" y="200"/>
			<point x="167" y="200" type="curve" smooth="yes"/>
			<point x="140" y="200" type="line" smooth="yes"/>
			<point x="86" y="200"/>
			<point x="70" y="220"/>
			<point x="70" y="296" type="curve"/>
			<point x="20" y="296" type="line"/>
			<point x="20" y="95" type="line" smooth="yes"/>
			<point x="20" y="40"/>
			<point x="42" y="0"/>
		</contour>
	</outline>
</glyph>
<glyph name="K" format="2">
	<advance width="495"/>
	<unicode hex="004B"/>
	<anchor x="268" y="0" name="bottom"/>
	<anchor x="248" y="700" name="top"/>
	<outline>
		<contour>
			<point x="155" y="0" type="curve" smooth="yes"/>
			<point x="242" y="0" type="line"/>
			<point x="196" y="200" type="line"/>
			<point x="175" y="200" type="line" smooth="yes"/>
			<point x="121" y="200"/>
			<point x="105" y="221"/>
			<point x="105" y="290" type="curve" smooth="yes"/>
			<point x="105" y="410" type="line" smooth="yes"/>
			<point x="105" y="479"/>
			<point x="121" y="500"/>
			<point x="175" y="500" type="curve" smooth="yes"/>
			<point x="196" y="500" type="line"/>
			<point x="242" y="700" type="line"/>
			<point x="155" y="700" type="line" smooth="yes"/>
			<point x="83" y="700"/>
			<point x="55" y="672"/>
			<point x="55" y="600" type="curve" smooth="yes"/>
			<point x="55" y="100" type="line" smooth="yes"/>
			<point x="55" y="28"/>
			<point x="83" y="0"/>
		</contour>
		<contour>
			<point x="374" y="0" type="curve" smooth="yes"/>
			<point x="424" y="0"/>
			<point x="450" y="27"/>
			<point x="450" y="97" type="curve" smooth="yes"/>
			<point x="450" y="276" type="line"/>
			<point x="400" y="276" type="line"/>
			<point x="400" y="221"/>
			<point x="384" y="200"/>
			<point x="353" y="200" type="curve" smooth="yes"/>
			<point x="320" y="200"/>
			<point x="305" y="211"/>
			<point x="290" y="254" type="curve" smooth="yes"/>
			<point x="257" y="352" type="line"/>
			<point x="208" y="352" type="line"/>
			<point x="282" y="98" type="line" smooth="yes"/>
			<point x="304" y="21"/>
			<point x="327" y="0"/>
		</contour>
		<contour>
			<point x="91" y="335" type="line"/>
			<point x="253" y="335" type="line"/>
			<point x="253" y="385" type="line"/>
			<point x="91" y="385" type="line"/>
		</contour>
		<contour>
			<point x="282" y="602" type="curve" smooth="yes"/>
			<point x="208" y="348" type="line"/>
			<point x="257" y="348" type="line"/>
			<point x="290" y="446" type="line" smooth="yes"/>
			<point x="305" y="489"/>
			<point x="320" y="500"/>
			<point x="353" y="500" type="curve" smooth="yes"/>
			<point x="384" y="500"/>
			<point x="400" y="479"/>
			<point x="400" y="424" type="curve"/>
			<point x="450" y="424" type="line"/>
			<point x="450" y="603" type="line" smooth="yes"/>
			<point x="450" y="673"/>
			<point x="424" y="700"/>
			<point x="374" y="700" type="curve" smooth="yes"/>
			<point x="327" y="700"/>
			<point x="304" y="679"/>
		</contour>
	</outline>
</glyph>
<glyph name="L" format="2">
	<advance width="332"/>
	<unicode hex="004C"/>
	<anchor x="166" y="0" name="bottom"/>
	<anchor x="166" y="350" name="center"/>
	<anchor x="141" y="700" name="top"/>
	<anchor x="312" y="700" name="topright"/>
	<outline>
		<contour>
			<point x="155" y="0" type="curve" smooth="yes"/>
			<point x="214" y="0" type="line" smooth="yes"/>
			<point x="290" y="0"/>
			<point x="312" y="40"/>
			<point x="312" y="95" type="curve" smooth="yes"/>
			<point x="312" y="296" type="line"/>
			<point x="262" y="296" type="line"/>
			<point x="262" y="220"/>
			<point x="246" y="200"/>
			<point x="192" y="200" type="curve" smooth="yes"/>
			<point x="165" y="200" type="line" smooth="yes"/>
			<point x="126" y="200"/>
			<point x="105" y="224"/>
			<point x="105" y="275" type="curve" smooth="yes"/>
			<point x="105" y="413" type="line" smooth="yes"/>
			<point x="105" y="481"/>
			<point x="123" y="500"/>
			<point x="171" y="500" type="curve" smooth="yes"/>
			<point x="195" y="500" type="line"/>
			<point x="195" y="700" type="line"/>
			<point x="155" y="700" type="line" smooth="yes"/>
			<point x="83" y="700"/>
			<point x="55" y="672"/>
			<point x="55" y="600" type="curve" smooth="yes"/>
			<point x="55" y="100" type="line" smooth="yes"/>
			<point x="55" y="28"/>
			<point x="83" y="0"/>
		</contour>
	</outline>
</glyph>
<glyph name="M" format="2">
	<advance width="600"/>
	<unicode hex="004D"/>
	<outline>
		<contour>
			<point x="300" y="-10" type="curve" smooth="yes"/>
			<point x="339" y="-10"/>
			<point x="351" y="12"/>
			<point x="360" y="95" type="curve" smooth="yes"/>
			<point x="393" y="412" type="line" smooth="yes"/>
			<point x="398" y="462"/>
			<point x="410" y="480"/>
			<point x="436" y="480" type="curve" smooth="yes"/>
			<point x="467" y="480"/>
			<point x="477" y="466"/>
			<point x="485" y="412" type="curve" smooth="yes"/>
			<point x="507" y="270" type="line" smooth="yes"/>
			<point x="509" y="258"/>
			<point x="510" y="248"/>
			<point x="510" y="239" type="curve" smooth="yes"/>
			<point x="510" y="212"/>
			<point x="500" y="200"/>
			<point x="478" y="200" type="curve" smooth="yes"/>
			<point x="429" y="200" type="line"/>
			<point x="406" y="0" type="line"/>
			<point x="476" y="0" type="line" smooth="yes"/>
			<point x="533" y="0"/>
			<point x="575" y="25"/>
			<point x="575" y="95" type="curve" smooth="yes"/>
			<point x="575" y="136"/>
			<point x="569" y="187"/>
			<point x="556" y="277" type="curve" smooth="yes"/>
			<point x="509" y="593" type="line" smooth="yes"/>
			<point x="495" y="685"/>
			<point x="474" y="708"/>
			<point x="430" y="708" type="curve" smooth="yes"/>
			<point x="389" y="708"/>
			<point x="371" y="685"/>
			<point x="362" y="601" type="curve" smooth="yes"/>
			<point x="330" y="285" type="line" smooth="yes"/>
			<point x="326" y="248"/>
			<point x="316" y="237"/>
			<point x="300" y="237" type="curve" smooth="yes"/>
			<point x="284" y="237"/>
			<point x="274" y="248"/>
			<point x="270" y="285" type="curve" smooth="yes"/>
			<point x="238" y="601" type="line" smooth="yes"/>
			<point x="229" y="685"/>
			<point x="211" y="708"/>
			<point x="170" y="708" type="curve" smooth="yes"/>
			<point x="126" y="708"/>
			<point x="105" y="685"/>
			<point x="91" y="593" type="curve" smooth="yes"/>
			<point x="44" y="277" type="line" smooth="yes"/>
			<point x="31" y="187"/>
			<point x="25" y="136"/>
			<point x="25" y="95" type="curve" smooth="yes"/>
			<point x="25" y="25"/>
			<point x="67" y="0"/>
			<point x="124" y="0" type="curve" smooth="yes"/>
			<point x="194" y="0" type="line"/>
			<point x="171" y="200" type="line"/>
			<point x="122" y="200" type="line" smooth="yes"/>
			<point x="100" y="200"/>
			<point x="90" y="212"/>
			<point x="90" y="239" type="curve" smooth="yes"/>
			<point x="90" y="248"/>
			<point x="91" y="258"/>
			<point x="93" y="270" type="curve" smooth="yes"/>
			<point x="115" y="412" type="line" smooth="yes"/>
			<point x="123" y="466"/>
			<point x="133" y="480"/>
			<point x="164" y="480" type="curve" smooth="yes"/>
			<point x="190" y="480"/>
			<point x="202" y="462"/>
			<point x="207" y="412" type="curve" smooth="yes"/>
			<point x="240" y="95" type="line" smooth="yes"/>
			<point x="249" y="12"/>
			<point x="261" y="-10"/>
		</contour>
	</outline>
</glyph>
<glyph name="N" format="2">
	<advance width="480"/>
	<unicode hex="004E"/>
	<anchor x="240" y="0" name="bottom"/>
	<anchor x="240" y="700" name="top"/>
	<outline>
		<contour>
			<point x="155" y="0" type="curve" smooth="yes"/>
			<point x="203" y="0" type="line"/>
			<point x="183" y="200" type="line"/>
			<point x="151" y="200" type="line" smooth="yes"/>
			<point x="119" y="200"/>
			<point x="105" y="216"/>
			<point x="105" y="275" type="curve" smooth="yes"/>
			<point x="105" y="403" type="line" smooth="yes"/>
			<point x="105" y="449"/>
			<point x="117" y="465"/>
			<point x="152" y="465" type="curve" smooth="yes"/>
			<point x="185" y="465"/>
			<point x="200" y="451"/>
			<point x="208" y="397" type="curve" smooth="yes"/>
			<point x="251" y="113" type="line" smooth="yes"/>
			<point x="262" y="38"/>
			<point x="281" y="0"/>
			<point x="341" y="0" type="curve" smooth="yes"/>
			<point x="401" y="0"/>
			<point x="425" y="48"/>
			<point x="425" y="123" type="curve" smooth="yes"/>
			<point x="425" y="605" type="line" smooth="yes"/>
			<point x="425" y="677"/>
			<point x="397" y="705"/>
			<point x="325" y="705" type="curve" smooth="yes"/>
			<point x="277" y="705" type="line"/>
			<point x="297" y="505" type="line"/>
			<point x="329" y="505" type="line" smooth="yes"/>
			<point x="361" y="505"/>
			<point x="375" y="489"/>
			<point x="375" y="432" type="curve" smooth="yes"/>
			<point x="375" y="302" type="line" smooth="yes"/>
			<point x="375" y="256"/>
			<point x="363" y="240"/>
			<point x="328" y="240" type="curve" smooth="yes"/>
			<point x="295" y="240"/>
			<point x="280" y="254"/>
			<point x="272" y="308" type="curve" smooth="yes"/>
			<point x="229" y="592" type="line" smooth="yes"/>
			<point x="218" y="667"/>
			<point x="199" y="705"/>
			<point x="139" y="705" type="curve" smooth="yes"/>
			<point x="79" y="705"/>
			<point x="55" y="657"/>
			<point x="55" y="582" type="curve" smooth="yes"/>
			<point x="55" y="100" type="line" smooth="yes"/>
			<point x="55" y="28"/>
			<point x="83" y="0"/>
		</contour>
	</outline>
</glyph>
<glyph name="O" format="2">
	<advance width="452"/>
	<unicode hex="004F"/>
	<anchor x="226" y="0" name="bottom"/>
	<anchor x="226" y="350" name="center"/>
	<anchor x="407" y="10" name="ogonek"/>
	<anchor x="226" y="700" name="top"/>
	<anchor x="20" y="700" name="topleft"/>
	<anchor x="432" y="700" name="topright"/>
	<outline>
		<contour>
			<point x="226" y="-10" type="curve" smooth="yes"/>
			<point x="346" y="-10"/>
			<point x="402" y="44"/>
			<point x="402" y="163" type="curve" smooth="yes"/>
			<point x="402" y="537" type="line" smooth="yes"/>
			<point x="402" y="656"/>
			<point x="346" y="710"/>
			<point x="226" y="710" type="curve" smooth="yes"/>
			<point x="106" y="710"/>
			<point x="50" y="656"/>
			<point x="50" y="537" type="curve" smooth="yes"/>
			<point x="50" y="163" type="line" smooth="yes"/>
			<point x="50" y="44"/>
			<point x="106" y="-10"/>
		</contour>
		<contour>
			<point x="231" y="190" type="curve" smooth="yes"/>
			<point x="221" y="190" type="line"/>
			<point x="139" y="190"/>
			<point x="100" y="227"/>
			<point x="100" y="315" type="curve" smooth="yes"/>
			<point x="100" y="385" type="line" smooth="yes"/>
			<point x="100" y="473"/>
			<point x="139" y="510"/>
			<point x="221" y="510" type="curve" smooth="yes"/>
			<point x="231" y="510" type="line" smooth="yes"/>
			<point x="313" y="510"/>
			<point x="352" y="473"/>
			<point x="352" y="385" type="curve" smooth="yes"/>
			<point x="352" y="315" type="line" smooth="yes"/>
			<point x="352" y="227"/>
			<point x="313" y="190"/>
		</contour>
	</outline>
</glyph>
<glyph name="P" format="2">
	<advance width="407"/>
	<unicode hex="0050"/>
	<outline>
		<contour>
			<point x="155" y="0" type="curve" smooth="yes"/>
			<point x="235" y="0" type="line"/>
			<point x="235" y="200" type="line"/>
			<point x="175" y="200" type="line" smooth="yes"/>
			<point x="121" y="200"/>
			<point x="105" y="221"/>
			<point x="105" y="290" type="curve" smooth="yes"/>
			<point x="105" y="410" type="line" smooth="yes"/>
			<point x="105" y="479"/>
			<point x="121" y="500"/>
			<point x="175" y="500" type="curve" smooth="yes"/>
			<point x="238" y="500" type="line" smooth="yes"/>
			<point x="297" y="500"/>
			<point x="327" y="477"/>
			<point x="327" y="425" type="curve" smooth="yes"/>
			<point x="327" y="415" type="line" smooth="yes"/>
			<point x="327" y="374"/>
			<point x="311" y="352"/>
			<point x="272" y="352" type="curve" smooth="yes"/>
			<point x="82" y="352" type="line"/>
			<point x="82" y="302" type="line"/>
			<point x="272" y="302" type="line" smooth="yes"/>
			<point x="338" y="302"/>
			<point x="377" y="344"/>
			<point x="377" y="420" type="curve" smooth="yes"/>
			<point x="377" y="566" type="line" smooth="yes"/>
			<point x="377" y="659"/>
			<point x="326" y="700"/>
			<point x="226" y="700" type="curve" smooth="yes"/>
			<point x="155" y="700" type="line" smooth="yes"/>
			<point x="83" y="700"/>
			<point x="55" y="672"/>
			<point x="55" y="600" type="curve" smooth="yes"/>
			<point x="55" y="100" type="line" smooth="yes"/>
			<point x="55" y="28"/>
			<point x="83" y="0"/>
		</contour>
	</outline>
</glyph>
<glyph name="Q" format="2">
	<advance width="518"/>
	<unicode hex="0051"/>
	<outline>
		<contour>
			<point x="236" y="0" type="curve"/>
			<point x="398" y="0" type="line" smooth="yes"/>
			<point x="470" y="0"/>
			<point x="498" y="28"/>
			<point x="498" y="100" type="curve" smooth="yes"/>
			<point x="498" y="276" type="line"/>
			<point x="452" y="276" type="line"/>
			<point x="452" y="221"/>
			<point x="436" y="200"/>
			<point x="397" y="200" type="curve" smooth="yes"/>
			<point x="224" y="200" type="line" smooth="yes"/>
			<point x="134" y="200"/>
			<point x="100" y="237"/>
			<point x="100" y="315" type="curve" smooth="yes"/>
			<point x="100" y="395" type="line" smooth="yes"/>
			<point x="100" y="473"/>
			<point x="134" y="510"/>
			<point x="214" y="510" type="curve" smooth="yes"/>
			<point x="234" y="510" type="line" smooth="yes"/>
			<point x="314" y="510"/>
			<point x="348" y="473"/>
			<point x="348" y="395" type="curve" smooth="yes"/>
			<point x="348" y="355" type="line" smooth="yes"/>
			<point x="348" y="237"/>
			<point x="292" y="200"/>
			<point x="225" y="200" type="curve"/>
			<point x="225" y="154" type="line"/>
			<point x="319" y="154"/>
			<point x="398" y="211"/>
			<point x="398" y="355" type="curve" smooth="yes"/>
			<point x="398" y="537" type="line" smooth="yes"/>
			<point x="398" y="677"/>
			<point x="331" y="710"/>
			<point x="224" y="710" type="curve" smooth="yes"/>
			<point x="117" y="710"/>
			<point x="50" y="677"/>
			<point x="50" y="537" type="curve" smooth="yes"/>
			<point x="50" y="173" type="line" smooth="yes"/>
			<point x="50" y="41"/>
			<point x="117" y="0"/>
		</contour>
	</outline>
</glyph>
<glyph name="R" format="2">
	<advance width="455"/>
	<unicode hex="0052"/>
	<anchor x="252" y="0" name="bottom"/>
	<anchor x="230" y="700" name="top"/>
	<outline>
		<contour>
			<point x="155" y="0" type="curve" smooth="yes"/>
			<point x="210" y="0" type="line"/>
			<point x="182" y="200" type="line"/>
			<point x="175" y="200" type="line" smooth="yes"/>
			<point x="121" y="200"/>
			<point x="105" y="221"/>
			<point x="105" y="290" type="curve" smooth="yes"/>
			<point x="105" y="410" type="line" smooth="yes"/>
			<point x="105" y="479"/>
			<point x="121" y="500"/>
			<point x="175" y="500" type="curve" smooth="yes"/>
			<point x="238" y="500" type="line" smooth="yes"/>
			<point x="297" y="500"/>
			<point x="327" y="477"/>
			<point x="327" y="425" type="curve" smooth="yes"/>
			<point x="327" y="415" type="line" smooth="yes"/>
			<point x="327" y="374"/>
			<point x="311" y="352"/>
			<point x="272" y="352" type="curve" smooth="yes"/>
			<point x="82" y="352" type="line"/>
			<point x="82" y="302" type="line"/>
			<point x="272" y="302" type="line" smooth="yes"/>
			<point x="338" y="302"/>
			<point x="377" y="344"/>
			<point x="377" y="420" type="curve" smooth="yes"/>
			<point x="377" y="566" type="line" smooth="yes"/>
			<point x="377" y="659"/>
			<point x="326" y="700"/>
			<point x="226" y="700" type="curve" smooth="yes"/>
			<point x="155" y="700" type="line" smooth="yes"/>
			<point x="83" y="700"/>
			<point x="55" y="672"/>
			<point x="55" y="600" type="curve" smooth="yes"/>
			<point x="55" y="100" type="line" smooth="yes"/>
			<point x="55" y="28"/>
			<point x="83" y="0"/>
		</contour>
		<contour>
			<point x="354" y="0" type="curve" smooth="yes"/>
			<point x="404" y="0"/>
			<point x="430" y="27"/>
			<point x="430" y="97" type="curve" smooth="yes"/>
			<point x="430" y="276" type="line"/>
			<point x="380" y="276" type="line"/>
			<point x="380" y="221"/>
			<point x="364" y="200"/>
			<point x="333" y="200" type="curve" smooth="yes"/>
			<point x="300" y="200"/>
			<point x="285" y="212"/>
			<point x="270" y="254" type="curve" smooth="yes"/>
			<point x="244" y="327" type="line"/>
			<point x="195" y="327" type="line"/>
			<point x="262" y="98" type="line" smooth="yes"/>
			<point x="284" y="21"/>
			<point x="307" y="0"/>
		</contour>
	</outline>
</glyph>
<glyph name="S" format="2">
	<advance width="436"/>
	<unicode hex="0053"/>
	<anchor x="216" y="0" name="bottom"/>
	<anchor x="216" y="700" name="top"/>
	<outline>
		<contour>
			<point x="153" y="0" type="curve" smooth="yes"/>
			<point x="245" y="0" type="line" smooth="yes"/>
			<point x="345" y="0"/>
			<point x="396" y="41"/>
			<point x="396" y="134" type="curve" smooth="yes"/>
			<point x="396" y="187" type="line" smooth="yes"/>
			<point x="396" y="284"/>
			<point x="370" y="322"/>
			<point x="302" y="354" type="curve" smooth="yes"/>
			<point x="165" y="418" type="line" smooth="yes"/>
			<point x="137" y="431"/>
			<point x="126" y="445"/>
			<point x="126" y="465" type="curve" smooth="yes"/>
			<point x="126" y="488"/>
			<point x="141" y="500"/>
			<point x="177" y="500" type="curve" smooth="yes"/>
			<point x="261" y="500" type="line" smooth="yes"/>
			<point x="315" y="500"/>
			<point x="331" y="490"/>
			<point x="331" y="430" type="curve" smooth="yes"/>
			<point x="331" y="405" type="line"/>
			<point x="381" y="405" type="line"/>
			<point x="381" y="582" type="line" smooth="yes"/>
			<point x="381" y="668"/>
			<point x="345" y="700"/>
			<point x="273" y="700" type="curve" smooth="yes"/>
			<point x="196" y="700" type="line" smooth="yes"/>
			<point x="96" y="700"/>
			<point x="45" y="659"/>
			<point x="45" y="566" type="curve" smooth="yes"/>
			<point x="45" y="513" type="line" smooth="yes"/>
			<point x="45" y="440"/>
			<point x="62" y="412"/>
			<point x="127" y="381" type="curve" smooth="yes"/>
			<point x="273" y="311" type="line" smooth="yes"/>
			<point x="308" y="294"/>
			<point x="316" y="274"/>
			<point x="316" y="249" type="curve" smooth="yes"/>
			<point x="316" y="214"/>
			<point x="301" y="200"/>
			<point x="260" y="200" type="curve" smooth="yes"/>
			<point x="165" y="200" type="line" smooth="yes"/>
			<point x="111" y="200"/>
			<point x="95" y="210"/>
			<point x="95" y="270" type="curve" smooth="yes"/>
			<point x="95" y="295" type="line"/>
			<point x="45" y="295" type="line"/>
			<point x="45" y="118" type="line" smooth="yes"/>
			<point x="45" y="32"/>
			<point x="81" y="0"/>
		</contour>
	</outline>
</glyph>
<glyph name="T" format="2">
	<advance width="451"/>
	<unicode hex="0054"/>
	<anchor x="226" y="0" name="bottom"/>
	<anchor x="226" y="350" name="center"/>
	<anchor x="226" y="700" name="top"/>
	<outline>
		<contour>
			<point x="203" y="0" type="curve" smooth="yes"/>
			<point x="248" y="0" type="line" smooth="yes"/>
			<point x="320" y="0"/>
			<point x="356" y="21"/>
			<point x="356" y="94" type="curve" smooth="yes"/>
			<point x="356" y="200" type="line"/>
			<point x="336" y="200" type="line" smooth="yes"/>
			<point x="270" y="200"/>
			<point x="254" y="229"/>
			<point x="254" y="291" type="curve" smooth="yes"/>
			<point x="254" y="415" type="line" smooth="yes"/>
			<point x="254" y="485"/>
			<point x="269" y="505"/>
			<point x="311" y="505" type="curve" smooth="yes"/>
			<point x="354" y="505"/>
			<point x="371" y="493"/>
			<point x="371" y="443" type="curve" smooth="yes"/>
			<point x="371" y="405" type="line"/>
			<point x="421" y="405" type="line"/>
			<point x="421" y="600" type="line" smooth="yes"/>
			<point x="421" y="672"/>
			<point x="393" y="700"/>
			<point x="321" y="700" type="curve" smooth="yes"/>
			<point x="130" y="700" type="line" smooth="yes"/>
			<point x="58" y="700"/>
			<point x="30" y="672"/>
			<point x="30" y="600" type="curve" smooth="yes"/>
			<point x="30" y="405" type="line"/>
			<point x="80" y="405" type="line"/>
			<point x="80" y="443" type="line" smooth="yes"/>
			<point x="80" y="493"/>
			<point x="97" y="505"/>
			<point x="140" y="505" type="curve" smooth="yes"/>
			<point x="182" y="505"/>
			<point x="197" y="485"/>
			<point x="197" y="415" type="curve" smooth="yes"/>
			<point x="197" y="291" type="line" smooth="yes"/>
			<point x="197" y="229"/>
			<point x="181" y="200"/>
			<point x="115" y="200" type="curve" smooth="yes"/>
			<point x="95" y="200" type="line"/>
			<point x="95" y="94" type="line" smooth="yes"/>
			<point x="95" y="21"/>
			<point x="131" y="0"/>
		</contour>
	</outline>
</glyph>
<glyph name="U" format="2">
	<advance width="440"/>
	<unicode hex="0055"/>
	<anchor x="220" y="0" name="bottom"/>
	<anchor x="358" y="0" name="ogonek"/>
	<anchor x="220" y="700" name="top"/>
	<anchor x="420" y="700" name="topright"/>
	<outline>
		<contour>
			<point x="220" y="-10" type="curve" smooth="yes"/>
			<point x="334" y="-10"/>
			<point x="390" y="31"/>
			<point x="390" y="163" type="curve" smooth="yes"/>
			<point x="390" y="600" type="line" smooth="yes"/>
			<point x="390" y="672"/>
			<point x="362" y="700"/>
			<point x="290" y="700" type="curve" smooth="yes"/>
			<point x="265" y="700" type="line"/>
			<point x="265" y="500" type="line"/>
			<point x="324" y="500"/>
			<point x="340" y="479"/>
			<point x="340" y="410" type="curve" smooth="yes"/>
			<point x="340" y="287" type="line" smooth="yes"/>
			<point x="340" y="226"/>
			<point x="292" y="190"/>
			<point x="225" y="190" type="curve" smooth="yes"/>
			<point x="215" y="190" type="line" smooth="yes"/>
			<point x="148" y="190"/>
			<point x="100" y="224"/>
			<point x="100" y="287" type="curve" smooth="yes"/>
			<point x="100" y="410" type="line" smooth="yes"/>
			<point x="100" y="479"/>
			<point x="116" y="500"/>
			<point x="175" y="500" type="curve"/>
			<point x="175" y="700" type="line"/>
			<point x="150" y="700" type="line" smooth="yes"/>
			<point x="78" y="700"/>
			<point x="50" y="672"/>
			<point x="50" y="600" type="curve" smooth="yes"/>
			<point x="50" y="163" type="line"/>
			<point x="50" y="46"/>
			<point x="106" y="-10"/>
		</contour>
	</outline>
</glyph>
<glyph name="V" format="2">
	<advance width="440"/>
	<unicode hex="0056"/>
	<outline>
		<contour>
			<point x="220" y="-10" type="curve" smooth="yes"/>
			<point x="250" y="-10"/>
			<point x="268" y="12"/>
			<point x="296" y="110" type="curve" smooth="yes"/>
			<point x="413" y="517" type="line" smooth="yes"/>
			<point x="426" y="563"/>
			<point x="430" y="585"/>
			<point x="430" y="613" type="curve" smooth="yes"/>
			<point x="430" y="665"/>
			<point x="403" y="700"/>
			<point x="340" y="700" type="curve" smooth="yes"/>
			<point x="260" y="700" type="line"/>
			<point x="260" y="500" type="line"/>
			<point x="304" y="500" type="line" smooth="yes"/>
			<point x="328" y="500"/>
			<point x="342" y="487"/>
			<point x="342" y="461" type="curve" smooth="yes"/>
			<point x="342" y="451"/>
			<point x="339" y="439"/>
			<point x="335" y="425" type="curve" smooth="yes"/>
			<point x="302" y="313" type="line" smooth="yes"/>
			<point x="278" y="231"/>
			<point x="258" y="210"/>
			<point x="220" y="210" type="curve" smooth="yes"/>
			<point x="182" y="210"/>
			<point x="162" y="231"/>
			<point x="138" y="313" type="curve" smooth="yes"/>
			<point x="105" y="425" type="line" smooth="yes"/>
			<point x="101" y="439"/>
			<point x="98" y="451"/>
			<point x="98" y="461" type="curve" smooth="yes"/>
			<point x="98" y="487"/>
			<point x="112" y="500"/>
			<point x="136" y="500" type="curve" smooth="yes"/>
			<point x="180" y="500" type="line"/>
			<point x="180" y="700" type="line"/>
			<point x="100" y="700" type="line" smooth="yes"/>
			<point x="37" y="700"/>
			<point x="10" y="665"/>
			<point x="10" y="613" type="curve" smooth="yes"/>
			<point x="10" y="585"/>
			<point x="14" y="563"/>
			<point x="27" y="517" type="curve" smooth="yes"/>
			<point x="144" y="110" type="line" smooth="yes"/>
			<point x="172" y="12"/>
			<point x="190" y="-10"/>
		</contour>
	</outline>
</glyph>
<glyph name="W" format="2">
	<advance width="600"/>
	<unicode hex="0057"/>
	<anchor x="300" y="0" name="bottom"/>
	<anchor x="300" y="700" name="top"/>
	<outline>
		<contour>
			<point x="170" y="-10" type="curve" smooth="yes"/>
			<point x="211" y="-10"/>
			<point x="229" y="13"/>
			<point x="238" y="97" type="curve" smooth="yes"/>
			<point x="270" y="413" type="line" smooth="yes"/>
			<point x="274" y="450"/>
			<point x="284" y="461"/>
			<point x="300" y="461" type="curve" smooth="yes"/>
			<point x="316" y="461"/>
			<point x="326" y="450"/>
			<point x="330" y="413" type="curve" smooth="yes"/>
			<point x="362" y="97" type="line" smooth="yes"/>
			<point x="371" y="13"/>
			<point x="389" y="-10"/>
			<point x="430" y="-10" type="curve" smooth="yes"/>
			<point x="474" y="-10"/>
			<point x="495" y="13"/>
			<point x="509" y="105" type="curve" smooth="yes"/>
			<point x="556" y="421" type="line" smooth="yes"/>
			<point x="569" y="511"/>
			<point x="575" y="562"/>
			<point x="575" y="603" type="curve" smooth="yes"/>
			<point x="575" y="673"/>
			<point x="533" y="698"/>
			<point x="476" y="698" type="curve" smooth="yes"/>
			<point x="406" y="698" type="line"/>
			<point x="429" y="498" type="line"/>
			<point x="478" y="498" type="line" smooth="yes"/>
			<point x="500" y="498"/>
			<point x="510" y="487"/>
			<point x="510" y="459" type="curve" smooth="yes"/>
			<point x="510" y="450"/>
			<point x="509" y="440"/>
			<point x="507" y="428" type="curve" smooth="yes"/>
			<point x="485" y="286" type="line" smooth="yes"/>
			<point x="477" y="232"/>
			<point x="467" y="218"/>
			<point x="436" y="218" type="curve" smooth="yes"/>
			<point x="410" y="218"/>
			<point x="398" y="236"/>
			<point x="393" y="286" type="curve" smooth="yes"/>
			<point x="360" y="603" type="line" smooth="yes"/>
			<point x="351" y="686"/>
			<point x="339" y="708"/>
			<point x="300" y="708" type="curve" smooth="yes"/>
			<point x="261" y="708"/>
			<point x="249" y="686"/>
			<point x="240" y="603" type="curve" smooth="yes"/>
			<point x="207" y="286" type="line" smooth="yes"/>
			<point x="202" y="236"/>
			<point x="190" y="218"/>
			<point x="164" y="218" type="curve" smooth="yes"/>
			<point x="133" y="218"/>
			<point x="123" y="232"/>
			<point x="115" y="286" type="curve" smooth="yes"/>
			<point x="93" y="428" type="line" smooth="yes"/>
			<point x="91" y="440"/>
			<point x="90" y="450"/>
			<point x="90" y="459" type="curve" smooth="yes"/>
			<point x="90" y="486"/>
			<point x="100" y="498"/>
			<point x="122" y="498" type="curve" smooth="yes"/>
			<point x="171" y="498" type="line"/>
			<point x="194" y="698" type="line"/>
			<point x="124" y="698" type="line" smooth="yes"/>
			<point x="67" y="698"/>
			<point x="25" y="673"/>
			<point x="25" y="603" type="curve" smooth="yes"/>
			<point x="25" y="562"/>
			<point x="31" y="511"/>
			<point x="44" y="421" type="curve" smooth="yes"/>
			<point x="91" y="105" type="line" smooth="yes"/>
			<point x="105" y="13"/>
			<point x="126" y="-10"/>
		</contour>
	</outline>
</glyph>
<glyph name="X" format="2">
	<advance width="500"/>
	<unicode hex="0058"/>
	<outline>
		<contour>
			<point x="106" y="-5" type="curve" smooth="yes"/>
			<point x="146" y="-5"/>
			<point x="168" y="16"/>
			<point x="191" y="93" type="curve" smooth="yes"/>
			<point x="244" y="270" type="line" smooth="yes"/>
			<point x="247" y="280"/>
			<point x="248" y="281"/>
			<point x="250" y="281" type="curve" smooth="yes"/>
			<point x="252" y="281"/>
			<point x="253" y="280"/>
			<point x="256" y="270" type="curve" smooth="yes"/>
			<point x="309" y="93" type="line" smooth="yes"/>
			<point x="332" y="16"/>
			<point x="354" y="-5"/>
			<point x="394" y="-5" type="curve" smooth="yes"/>
			<point x="444" y="-5"/>
			<point x="470" y="22"/>
			<point x="470" y="92" type="curve" smooth="yes"/>
			<point x="470" y="271" type="line"/>
			<point x="420" y="271" type="line"/>
			<point x="420" y="216"/>
			<point x="404" y="195"/>
			<point x="373" y="195" type="curve" smooth="yes"/>
			<point x="340" y="195"/>
			<point x="324" y="207"/>
			<point x="310" y="249" type="curve" smooth="yes"/>
			<point x="263" y="394" type="line"/>
			<point x="263" y="308" type="line"/>
			<point x="310" y="451" type="line" smooth="yes"/>
			<point x="324" y="494"/>
			<point x="340" y="505"/>
			<point x="373" y="505" type="curve" smooth="yes"/>
			<point x="404" y="505"/>
			<point x="420" y="484"/>
			<point x="420" y="429" type="curve"/>
			<point x="470" y="429" type="line"/>
			<point x="470" y="608" type="line" smooth="yes"/>
			<point x="470" y="678"/>
			<point x="444" y="705"/>
			<point x="394" y="705" type="curve" smooth="yes"/>
			<point x="354" y="705"/>
			<point x="332" y="684"/>
			<point x="309" y="607" type="curve" smooth="yes"/>
			<point x="256" y="430" type="line" smooth="yes"/>
			<point x="253" y="420"/>
			<point x="252" y="419"/>
			<point x="250" y="419" type="curve" smooth="yes"/>
			<point x="248" y="419"/>
			<point x="247" y="420"/>
			<point x="244" y="430" type="curve" smooth="yes"/>
			<point x="191" y="607" type="line" smooth="yes"/>
			<point x="168" y="684"/>
			<point x="146" y="705"/>
			<point x="106" y="705" type="curve" smooth="yes"/>
			<point x="56" y="705"/>
			<point x="30" y="678"/>
			<point x="30" y="608" type="curve" smooth="yes"/>
			<point x="30" y="429" type="line"/>
			<point x="80" y="429" type="line"/>
			<point x="80" y="484"/>
			<point x="96" y="505"/>
			<point x="127" y="505" type="curve" smooth="yes"/>
			<point x="160" y="505"/>
			<point x="176" y="494"/>
			<point x="190" y="451" type="curve" smooth="yes"/>
			<point x="238" y="308" type="line"/>
			<point x="238" y="394" type="line"/>
			<point x="190" y="249" type="line" smooth="yes"/>
			<point x="176" y="207"/>
			<point x="160" y="195"/>
			<point x="127" y="195" type="curve" smooth="yes"/>
			<point x="96" y="195"/>
			<point x="80" y="216"/>
			<point x="80" y="271" type="curve"/>
			<point x="30" y="271" type="line"/>
			<point x="30" y="92" type="line" smooth="yes"/>
			<point x="30" y="22"/>
			<point x="56" y="-5"/>
		</contour>
	</outline>
</glyph>
<glyph name="Y" format="2">
	<advance width="481"/>
	<unicode hex="0059"/>
	<anchor x="241" y="0" name="bottom"/>
	<anchor x="241" y="700" name="top"/>
	<anchor x="20" y="700" name="topleft"/>
	<outline>
		<contour>
			<point x="218" y="0" type="curve" smooth="yes"/>
			<point x="263" y="0" type="line" smooth="yes"/>
			<point x="335" y="0"/>
			<point x="371" y="21"/>
			<point x="371" y="94" type="curve" smooth="yes"/>
			<point x="371" y="195" type="line"/>
			<point x="351" y="195" type="line"/>
			<point x="285" y="195"/>
			<point x="269" y="224"/>
			<point x="269" y="286" type="curve" smooth="yes"/>
			<point x="269" y="359" type="line"/>
			<point x="212" y="359" type="line"/>
			<point x="212" y="286" type="line"/>
			<point x="212" y="224"/>
			<point x="196" y="195"/>
			<point x="130" y="195" type="curve"/>
			<point x="110" y="195" type="line"/>
			<point x="110" y="94" type="line" smooth="yes"/>
			<point x="110" y="21"/>
			<point x="146" y="0"/>
		</contour>
		<contour>
			<point x="92" y="430" type="curve" smooth="yes"/>
			<point x="227" y="322" type="line"/>
			<point x="254" y="363" type="line"/>
			<point x="158" y="440" type="line" smooth="yes"/>
			<point x="139" y="455"/>
			<point x="130" y="468"/>
			<point x="130" y="481" type="curve" smooth="yes"/>
			<point x="130" y="492"/>
			<point x="136" y="500"/>
			<point x="155" y="500" type="curve" smooth="yes"/>
			<point x="198" y="500" type="line"/>
			<point x="198" y="700" type="line"/>
			<point x="116" y="700" type="line" smooth="yes"/>
			<point x="44" y="700"/>
			<point x="16" y="672"/>
			<point x="16" y="601" type="curve"/>
			<point x="16" y="557" type="line" smooth="yes"/>
			<point x="16" y="503"/>
			<point x="28" y="481"/>
		</contour>
		<contour>
			<point x="254" y="322" type="line"/>
			<point x="389" y="430" type="line" smooth="yes"/>
			<point x="453" y="481"/>
			<point x="465" y="503"/>
			<point x="465" y="557" type="curve" smooth="yes"/>
			<point x="465" y="601" type="line"/>
			<point x="465" y="672"/>
			<point x="437" y="700"/>
			<point x="365" y="700" type="curve" smooth="yes"/>
			<point x="283" y="700" type="line"/>
			<point x="283" y="500" type="line"/>
			<point x="326" y="500" type="line" smooth="yes"/>
			<point x="345" y="500"/>
			<point x="351" y="492"/>
			<point x="351" y="481" type="curve" smooth="yes"/>
			<point x="351" y="468"/>
			<point x="342" y="455"/>
			<point x="323" y="440" type="curve" smooth="yes"/>
			<point x="227" y="363" type="line"/>
		</contour>
	</outline>
</glyph>
<glyph name="Z" format="2">
	<advance width="468"/>
	<unicode hex="005A"/>
	<anchor x="234" y="0" name="bottom"/>
	<anchor x="234" y="350" name="center"/>
	<anchor x="234" y="700" name="top"/>
	<outline>
		<contour>
			<point x="135" y="0" type="curve" smooth="yes"/>
			<point x="338" y="0" type="line"/>
			<point x="410" y="0"/>
			<point x="438" y="28"/>
			<point x="438" y="100" type="curve" smooth="yes"/>
			<point x="438" y="276" type="line"/>
			<point x="388" y="276" type="line"/>
			<point x="388" y="221"/>
			<point x="372" y="200"/>
			<point x="341" y="200" type="curve" smooth="yes"/>
			<point x="226" y="200" type="line" smooth="yes"/>
			<point x="198" y="200"/>
			<point x="183" y="216"/>
			<point x="183" y="238" type="curve" smooth="yes"/>
			<point x="183" y="250"/>
			<point x="188" y="262"/>
			<point x="200" y="276" type="curve" smooth="yes"/>
			<point x="379" y="482" type="line" smooth="yes"/>
			<point x="421" y="530"/>
			<point x="428" y="546"/>
			<point x="428" y="576" type="curve" smooth="yes"/>
			<point x="428" y="601" type="line" smooth="yes"/>
			<point x="428" y="672"/>
			<point x="410" y="700"/>
			<point x="338" y="700" type="curve" smooth="yes"/>
			<point x="111" y="700" type="line"/>
			<point x="61" y="700"/>
			<point x="35" y="673"/>
			<point x="35" y="603" type="curve" smooth="yes"/>
			<point x="35" y="424" type="line"/>
			<point x="85" y="424" type="line"/>
			<point x="85" y="479"/>
			<point x="99" y="500"/>
			<point x="142" y="500" type="curve" smooth="yes"/>
			<point x="252" y="500" type="line" smooth="yes"/>
			<point x="277" y="500"/>
			<point x="289" y="490"/>
			<point x="289" y="473" type="curve" smooth="yes"/>
			<point x="289" y="460"/>
			<point x="282" y="446"/>
			<point x="269" y="431" type="curve" smooth="yes"/>
			<point x="84" y="218" type="line" smooth="yes"/>
			<point x="42" y="170"/>
			<point x="35" y="154"/>
			<point x="35" y="124" type="curve" smooth="yes"/>
			<point x="35" y="100" type="line" smooth="yes"/>
			<point x="35" y="28"/>
			<point x="63" y="0"/>
		</contour>
	</outline>
</glyph>
<glyph name="bracketleft" format="2">
	<advance width="255"/>
	<unicode hex="005B"/>
	<outline>
		<contour>
			<point x="155" y="0" type="curve" smooth="yes"/>
			<point x="245" y="0" type="line"/>
			<point x="245" y="160" type="line"/>
			<point x="174" y="160" type="line"/>
			<point x="120" y="160"/>
			<point x="104" y="180"/>
			<point x="104" y="250" type="curve" smooth="yes"/>
			<point x="104" y="450" type="line" smooth="yes"/>
			<point x="104" y="520"/>
			<point x="120" y="540"/>
			<point x="174" y="540" type="curve" smooth="yes"/>
			<point x="245" y="540" type="line"/>
			<point x="245" y="700" type="line"/>
			<point x="155" y="700" type="line" smooth="yes"/>
			<point x="83" y="700"/>
			<point x="55" y="672"/>
			<point x="55" y="600" type="curve" smooth="yes"/>
			<point x="55" y="100" type="line" smooth="yes"/>
			<point x="55" y="28"/>
			<point x="83" y="0"/>
		</contour>
	</outline>
</glyph>
<glyph name="backslash" format="2">
	<advance width="301"/>
	<unicode hex="005C"/>
	<outline>
		<contour>
			<point x="248" y="0" type="line"/>
			<point x="301" y="0" type="line"/>
			<point x="53" y="700" type="line"/>
			<point x="0" y="700" type="line"/>
		</contour>
	</outline>
</glyph>
<glyph name="bracketright" format="2">
	<advance width="255"/>
	<unicode hex="005D"/>
	<outline>
		<contour>
			<point x="10" y="0" type="line"/>
			<point x="100" y="0" type="line" smooth="yes"/>
			<point x="172" y="0"/>
			<point x="200" y="28"/>
			<point x="200" y="100" type="curve" smooth="yes"/>
			<point x="200" y="600" type="line" smooth="yes"/>
			<point x="200" y="672"/>
			<point x="172" y="700"/>
			<point x="100" y="700" type="curve" smooth="yes"/>
			<point x="10" y="700" type="line"/>
			<point x="10" y="540" type="line"/>
			<point x="81" y="540" type="line" smooth="yes"/>
			<point x="135" y="540"/>
			<point x="151" y="520"/>
			<point x="151" y="450" type="curve" smooth="yes"/>
			<point x="151" y="250" type="line" smooth="yes"/>
			<point x="151" y="180"/>
			<point x="135" y="160"/>
			<point x="81" y="160" type="curve"/>
			<point x="10" y="160" type="line"/>
		</contour>
	</outline>
</glyph>
<glyph name="underscore" format="2">
	<advance width="440"/>
	<unicode hex="005F"/>
	<outline>
		<contour>
			<point x="20" y="-60" type="line"/>
			<point x="420" y="-60" type="line"/>
			<point x="420" y="-10" type="line"/>
			<point x="20" y="-10" type="line"/>
		</contour>
	</outline>
</glyph>
<glyph name="braceright" format="2">
	<advance width="291"/>
	<unicode hex="007D"/>
	<outline>
		<contour>
			<point x="10" y="0" type="line"/>
			<point x="80" y="0" type="line" smooth="yes"/>
			<point x="152" y="0"/>
			<point x="180" y="28"/>
			<point x="180" y="100" type="curve" smooth="yes"/>
			<point x="180" y="143" type="line" smooth="yes"/>
			<point x="180" y="208"/>
			<point x="188" y="220"/>
			<point x="226" y="220" type="curve" smooth="yes"/>
			<point x="265" y="220"/>
			<point x="281" y="242"/>
			<point x="281" y="283" type="curve" smooth="yes"/>
			<point x="281" y="417" type="line" smooth="yes"/>
			<point x="281" y="458"/>
			<point x="265" y="480"/>
			<point x="226" y="480" type="curve" smooth="yes"/>
			<point x="188" y="480"/>
			<point x="180" y="492"/>
			<point x="180" y="557" type="curve" smooth="yes"/>
			<point x="180" y="600" type="line" smooth="yes"/>
			<point x="180" y="672"/>
			<point x="152" y="700"/>
			<point x="80" y="700" type="curve" smooth="yes"/>
			<point x="10" y="700" type="line"/>
			<point x="10" y="540" type="line"/>
			<point x="71" y="540" type="line" smooth="yes"/>
			<point x="125" y="540"/>
			<point x="141" y="526"/>
			<point x="141" y="476" type="curve" smooth="yes"/>
			<point x="141" y="434" type="line" smooth="yes"/>
			<point x="141" y="361"/>
			<point x="231" y="385"/>
			<point x="231" y="350" type="curve" smooth="yes"/>
			<point x="231" y="315"/>
			<point x="141" y="339"/>
			<point x="141" y="266" type="curve" smooth="yes"/>
			<point x="141" y="224" type="line" smooth="yes"/>
			<point x="141" y="174"/>
			<point x="125" y="160"/>
			<point x="71" y="160" type="curve" smooth="yes"/>
			<point x="10" y="160" type="line"/>
		</contour>
	</outline>
</glyph>
<glyph name="exclamdown" format="2">
	<advance width="250"/>
	<unicode hex="00A1"/>
	<outline>
		<contour>
			<point x="125" y="0" type="curve" smooth="yes"/>
			<point x="187" y="0"/>
			<point x="200" y="19"/>
			<point x="200" y="71" type="curve" smooth="yes"/>
			<point x="200" y="115" type="line" smooth="yes"/>
			<point x="200" y="155"/>
			<point x="189" y="182"/>
			<point x="177" y="210" type="curve" smooth="yes"/>
			<point x="163" y="242"/>
			<point x="150" y="278"/>
			<point x="150" y="339" type="curve" smooth="yes"/>
			<point x="150" y="450" type="line"/>
			<point x="100" y="450" type="line"/>
			<point x="100" y="339" type="line" smooth="yes"/>
			<point x="100" y="277"/>
			<point x="87" y="242"/>
			<point x="72" y="209" type="curve" smooth="yes"/>
			<point x="60" y="182"/>
			<point x="50" y="155"/>
			<point x="50" y="115" type="curve" smooth="yes"/>
			<point x="50" y="71" type="line" smooth="yes"/>
			<point x="50" y="20"/>
			<point x="63" y="0"/>
		</contour>
		<contour>
			<point x="110" y="550" type="curve" smooth="yes"/>
			<point x="140" y="550" type="line" smooth="yes"/>
			<point x="182" y="550"/>
			<point x="200" y="568"/>
			<point x="200" y="610" type="curve" smooth="yes"/>
			<point x="200" y="640" type="line" smooth="yes"/>
			<point x="200" y="682"/>
			<point x="182" y="700"/>
			<point x="140" y="700" type="curve" smooth="yes"/>
			<point x="110" y="700" type="line" smooth="yes"/>
			<point x="68" y="700"/>
			<point x="50" y="682"/>
			<point x="50" y="640" type="curve" smooth="yes"/>
			<point x="50" y="610" type="line" smooth="yes"/>
			<point x="50" y="568"/>
			<point x="68" y="550"/>
		</contour>
	</outline>
</glyph>
<glyph name="yen" format="2">
	<advance width="471"/>
	<unicode hex="00A5"/>
	<outline>
		<contour>
			<point x="213" y="0" type="curve" smooth="yes"/>
			<point x="258" y="0" type="line" smooth="yes"/>
			<point x="330" y="0"/>
			<point x="366" y="21"/>
			<point x="366" y="94" type="curve" smooth="yes"/>
			<point x="366" y="195" type="line"/>
			<point x="346" y="195" type="line"/>
			<point x="280" y="195"/>
			<point x="264" y="224"/>
			<point x="264" y="286" type="curve" smooth="yes"/>
			<point x="264" y="364" type="line"/>
			<point x="207" y="364" type="line"/>
			<point x="207" y="286" type="line"/>
			<point x="207" y="224"/>
			<point x="191" y="195"/>
			<point x="125" y="195" type="curve"/>
			<point x="105" y="195" type="line"/>
			<point x="105" y="94" type="line" smooth="yes"/>
			<point x="105" y="21"/>
			<point x="141" y="0"/>
		</contour>
		<contour>
			<point x="112" y="291" type="line"/>
			<point x="350" y="291" type="line"/>
			<point x="350" y="336" type="line"/>
			<point x="112" y="336" type="line"/>
		</contour>
		<contour>
			<point x="87" y="435" type="curve" smooth="yes"/>
			<point x="222" y="327" type="line"/>
			<point x="249" y="368" type="line"/>
			<point x="153" y="445" type="line" smooth="yes"/>
			<point x="134" y="460"/>
			<point x="125" y="473"/>
			<point x="125" y="486" type="curve" smooth="yes"/>
			<point x="125" y="497"/>
			<point x="131" y="505"/>
			<point x="150" y="505" type="curve" smooth="yes"/>
			<point x="193" y="505" type="line"/>
			<point x="193" y="700" type="line"/>
			<point x="122" y="700" type="line" smooth="yes"/>
			<point x="39" y="700"/>
			<point x="5" y="669"/>
			<point x="5" y="593" type="curve" smooth="yes"/>
			<point x="5" y="539"/>
			<point x="23" y="486"/>
		</contour>
		<contour>
			<point x="249" y="327" type="line"/>
			<point x="384" y="435" type="line" smooth="yes"/>
			<point x="448" y="486"/>
			<point x="466" y="539"/>
			<point x="466" y="593" type="curve" smooth="yes"/>
			<point x="466" y="669"/>
			<point x="432" y="700"/>
			<point x="349" y="700" type="curve" smooth="yes"/>
			<point x="278" y="700" type="line"/>
			<point x="278" y="505" type="line"/>
			<point x="321" y="505" type="line" smooth="yes"/>
			<point x="340" y="505"/>
			<point x="346" y="497"/>
			<point x="346" y="486" type="curve" smooth="yes"/>
			<point x="346" y="473"/>
			<point x="337" y="460"/>
			<point x="318" y="445" type="curve" smooth="yes"/>
			<point x="222" y="368" type="line"/>
		</contour>
	</outline>
</glyph>
<glyph name="copyright" format="2">
	<advance width="547"/>
	<unicode hex="00A9"/>
	<outline>
		<contour>
			<point x="276" y="-10" type="curve" smooth="yes"/>
			<point x="427" y="-10"/>
			<point x="497" y="74"/>
			<point x="497" y="213" type="curve" smooth="yes"/>
			<point x="497" y="487" type="line" smooth="yes"/>
			<point x="497" y="626"/>
			<point x="427" y="710"/>
			<point x="276" y="710" type="curve" smooth="yes"/>
			<point x="115" y="710"/>
			<point x="50" y="626"/>
			<point x="50" y="487" type="curve" smooth="yes"/>
			<point x="50" y="213" type="line" smooth="yes"/>
			<point x="50" y="74"/>
			<point x="115" y="-10"/>
		</contour>
		<contour>
			<point x="272" y="90" type="curve" smooth="yes"/>
			<point x="147" y="90"/>
			<point x="99" y="140"/>
			<point x="99" y="256" type="curve" smooth="yes"/>
			<point x="99" y="444" type="line" smooth="yes"/>
			<point x="99" y="560"/>
			<point x="147" y="610"/>
			<point x="272" y="610" type="curve" smooth="yes"/>
			<point x="385" y="610"/>
			<point x="447" y="567"/>
			<point x="447" y="444" type="curve" smooth="yes"/>
			<point x="447" y="256" type="line" smooth="yes"/>
			<point x="447" y="133"/>
			<point x="385" y="90"/>
		</contour>
		<contour>
			<point x="278" y="167" type="curve" smooth="yes"/>
			<point x="345" y="167"/>
			<point x="380" y="209"/>
			<point x="380" y="275" type="curve" smooth="yes"/>
			<point x="380" y="316" type="line"/>
			<point x="350" y="316" type="line"/>
			<point x="349" y="290"/>
			<point x="329" y="275"/>
			<point x="279" y="275" type="curve" smooth="yes"/>
			<point x="223" y="275"/>
			<point x="204" y="311"/>
			<point x="204" y="350" type="curve" smooth="yes"/>
			<point x="204" y="389"/>
			<point x="223" y="423"/>
			<point x="279" y="423" type="curve" smooth="yes"/>
			<point x="334" y="423"/>
			<point x="349" y="405"/>
			<point x="350" y="380" type="curve"/>
			<point x="380" y="380" type="line"/>
			<point x="380" y="424" type="line" smooth="yes"/>
			<point x="380" y="490"/>
			<point x="347" y="531"/>
			<point x="280" y="531" type="curve" smooth="yes"/>
			<point x="212" y="531"/>
			<point x="171" y="494"/>
			<point x="171" y="424" type="curve" smooth="yes"/>
			<point x="171" y="283" type="line" smooth="yes"/>
			<point x="171" y="209"/>
			<point x="210" y="167"/>
		</contour>
	</outline>
</glyph>
<glyph name="ordfeminine" format="2">
	<advance width="271"/>
	<unicode hex="00AA"/>
	<outline>
		<contour>
			<point x="256" y="468" type="curve"/>
			<point x="256" y="360" type="line"/>
			<point x="225" y="360"/>
			<point x="197" y="390"/>
			<point x="197" y="431" type="curve" smooth="yes"/>
			<point x="197" y="439"/>
			<point x="187" y="439"/>
			<point x="187" y="431" type="curve" smooth="yes"/>
			<point x="187" y="389"/>
			<point x="167" y="360"/>
			<point x="115" y="360" type="curve" smooth="yes"/>
			<point x="56" y="360"/>
			<point x="30" y="397"/>
			<point x="30" y="462" type="curve" smooth="yes"/>
			<point x="30" y="485" type="line" smooth="yes"/>
			<point x="30" y="523"/>
			<point x="52" y="553"/>
			<point x="110" y="553" type="curve" smooth="yes"/>
			<point x="201" y="553" type="line"/>
			<point x="201" y="518" type="line"/>
			<point x="110" y="518" type="line" smooth="yes"/>
			<point x="82" y="518"/>
			<point x="70" y="510"/>
			<point x="70" y="493" type="curve" smooth="yes"/>
			<point x="70" y="478"/>
			<point x="81" y="468"/>
			<point x="120" y="468" type="curve" smooth="yes"/>
			<point x="174" y="468"/>
			<point x="188" y="484"/>
			<point x="188" y="509" type="curve" smooth="yes"/>
			<point x="188" y="551" type="line" smooth="yes"/>
			<point x="188" y="586"/>
			<point x="175" y="602"/>
			<point x="131" y="602" type="curve" smooth="yes"/>
			<point x="93" y="602"/>
			<point x="79" y="592"/>
			<point x="75" y="574" type="curve"/>
			<point x="40" y="574" type="line"/>
			<point x="40" y="595" type="line" smooth="yes"/>
			<point x="40" y="675"/>
			<point x="74" y="710"/>
			<point x="134" y="710" type="curve" smooth="yes"/>
			<point x="188" y="710"/>
			<point x="228" y="675"/>
			<point x="228" y="617" type="curve" smooth="yes"/>
			<point x="228" y="509" type="line" smooth="yes"/>
			<point x="228" y="484"/>
			<point x="234" y="468"/>
		</contour>
	</outline>
</glyph>
<glyph name="twosuperior" format="2">
	<advance width="257"/>
	<unicode hex="00B2"/>
	<outline>
		<contour>
			<point x="73" y="325" type="curve" smooth="yes"/>
			<point x="200" y="325" type="line"/>
			<point x="227" y="325"/>
			<point x="242" y="340"/>
			<point x="242" y="378" type="curve" smooth="yes"/>
			<point x="242" y="475" type="line"/>
			<point x="210" y="475" type="line"/>
			<point x="210" y="445"/>
			<point x="195" y="434"/>
			<point x="168" y="434" type="curve" smooth="yes"/>
			<point x="131" y="434" type="line" smooth="yes"/>
			<point x="116" y="434"/>
			<point x="108" y="442"/>
			<point x="108" y="454" type="curve" smooth="yes"/>
			<point x="108" y="461"/>
			<point x="110" y="467"/>
			<point x="117" y="475" type="curve" smooth="yes"/>
			<point x="198" y="558" type="line" smooth="yes"/>
			<point x="215" y="576"/>
			<point x="229" y="600"/>
			<point x="229" y="642" type="curve" smooth="yes"/>
			<point x="229" y="684"/>
			<point x="210" y="705"/>
			<point x="169" y="705" type="curve" smooth="yes"/>
			<point x="88" y="705" type="line" smooth="yes"/>
			<point x="51" y="705"/>
			<point x="27" y="680"/>
			<point x="27" y="642" type="curve" smooth="yes"/>
			<point x="27" y="558" type="line"/>
			<point x="59" y="558" type="line"/>
			<point x="59" y="588"/>
			<point x="72" y="599"/>
			<point x="95" y="599" type="curve" smooth="yes"/>
			<point x="123" y="599" type="line" smooth="yes"/>
			<point x="144" y="599"/>
			<point x="154" y="592"/>
			<point x="154" y="576" type="curve" smooth="yes"/>
			<point x="154" y="564"/>
			<point x="150" y="553"/>
			<point x="138" y="540" type="curve" smooth="yes"/>
			<point x="54" y="453" type="line" smooth="yes"/>
			<point x="32" y="431"/>
			<point x="25" y="410"/>
			<point x="25" y="383" type="curve" smooth="yes"/>
			<point x="25" y="350"/>
			<point x="38" y="325"/>
		</contour>
	</outline>
</glyph>
<glyph name="onesuperior" format="2">
	<advance width="184"/>
	<unicode hex="00B9"/>
	<outline>
		<contour>
			<point x="84" y="325" type="curve" smooth="yes"/>
			<point x="115" y="325" type="line" smooth="yes"/>
			<point x="154" y="325"/>
			<point x="174" y="336"/>
			<point x="174" y="376" type="curve" smooth="yes"/>
			<point x="174" y="431" type="line"/>
			<point x="163" y="431" type="line" smooth="yes"/>
			<point x="127" y="431"/>
			<point x="127" y="447"/>
			<point x="127" y="480" type="curve" smooth="yes"/>
			<point x="127" y="641" type="line" smooth="yes"/>
			<point x="127" y="688"/>
			<point x="106" y="705"/>
			<point x="82" y="705" type="curve" smooth="yes"/>
			<point x="41" y="705" type="line"/>
			<point x="25" y="595" type="line"/>
			<point x="62" y="595" type="line" smooth="yes"/>
			<point x="82" y="595"/>
			<point x="92" y="582"/>
			<point x="92" y="555" type="curve" smooth="yes"/>
			<point x="92" y="480" type="line" smooth="yes"/>
			<point x="92" y="447"/>
			<point x="83" y="431"/>
			<point x="47" y="431" type="curve" smooth="yes"/>
			<point x="25" y="431" type="line"/>
			<point x="25" y="376" type="line" smooth="yes"/>
			<point x="25" y="336"/>
			<point x="45" y="325"/>
		</contour>
	</outline>
</glyph>
<glyph name="ordmasculine" format="2">
	<advance width="268"/>
	<unicode hex="00BA"/>
	<outline>
		<contour>
			<point x="138" y="468" type="curve" smooth="yes"/>
			<point x="132" y="468" type="line" smooth="yes"/>
			<point x="95" y="468"/>
			<point x="72" y="486"/>
			<point x="72" y="524" type="curve" smooth="yes"/>
			<point x="72" y="552" type="line" smooth="yes"/>
			<point x="72" y="584"/>
			<point x="94" y="602"/>
			<point x="131" y="602" type="curve" smooth="yes"/>
			<point x="137" y="602" type="line" smooth="yes"/>
			<point x="174" y="602"/>
			<point x="197" y="584"/>
			<point x="197" y="552" type="curve" smooth="yes"/>
			<point x="197" y="524" type="line" smooth="yes"/>
			<point x="197" y="486"/>
			<point x="174" y="468"/>
		</contour>
		<contour>
			<point x="134" y="710" type="curve" smooth="yes"/>
			<point x="81" y="710"/>
			<point x="35" y="684"/>
			<point x="35" y="616" type="curve" smooth="yes"/>
			<point x="35" y="454" type="line" smooth="yes"/>
			<point x="35" y="386"/>
			<point x="81" y="360"/>
			<point x="134" y="360" type="curve" smooth="yes"/>
			<point x="187" y="360"/>
			<point x="233" y="386"/>
			<point x="233" y="454" type="curve" smooth="yes"/>
			<point x="233" y="616" type="line" smooth="yes"/>
			<point x="233" y="684"/>
			<point x="187" y="710"/>
		</contour>
	</outline>
</glyph>
<glyph name="guillemetright" format="2">
	<advance width="500"/>
	<unicode hex="00BB"/>
	<outline>
		<contour>
			<point x="92" y="0" type="line"/>
			<point x="162" y="0" type="line"/>
			<point x="500" y="350" type="line"/>
			<point x="162" y="700" type="line"/>
			<point x="92" y="700" type="line"/>
			<point x="430" y="350" type="line"/>
		</contour>
		<contour>
			<point x="0" y="0" type="line"/>
			<point x="70" y="0" type="line"/>
			<point x="408" y="350" type="line"/>
			<point x="70" y="700" type="line"/>
			<point x="0" y="700" type="line"/>
			<point x="338" y="350" type="line"/>
		</contour>
	</outline>
</glyph>
<glyph name="questiondown" format="2">
	<advance width="415"/>
	<unicode hex="00BF"/>
	<outline>
		<contour>
			<point x="179" y="0" type="curve" smooth="yes"/>
			<point x="264" y="0" type="line" smooth="yes"/>
			<point x="334" y="0"/>
			<point x="380" y="47"/>
			<point x="380" y="127" type="curve" smooth="yes"/>
			<point x="380" y="271" type="line"/>
			<point x="330" y="271" type="line"/>
			<point x="330" y="216"/>
			<point x="316" y="195"/>
			<point x="253" y="195" type="curve" smooth="yes"/>
			<point x="213" y="195" type="line" smooth="yes"/>
			<point x="170" y="195"/>
			<point x="147" y="209"/>
			<point x="147" y="237" type="curve" smooth="yes"/>
			<point x="147" y="262"/>
			<point x="157" y="281"/>
			<point x="186" y="310" type="curve" smooth="yes"/>
			<point x="217" y="341" type="line" smooth="yes"/>
			<point x="251" y="375"/>
			<point x="261" y="401"/>
			<point x="261" y="450" type="curve"/>
			<point x="211" y="450" type="line"/>
			<point x="211" y="418"/>
			<point x="203" y="398"/>
			<point x="180" y="375" type="curve" smooth="yes"/>
			<point x="129" y="325" type="line" smooth="yes"/>
			<point x="41" y="239"/>
			<point x="20" y="196"/>
			<point x="20" y="128" type="curve" smooth="yes"/>
			<point x="20" y="39"/>
			<point x="74" y="0"/>
		</contour>
		<contour>
			<point x="221" y="550" type="curve" smooth="yes"/>
			<point x="251" y="550" type="line" smooth="yes"/>
			<point x="293" y="550"/>
			<point x="311" y="568"/>
			<point x="311" y="610" type="curve" smooth="yes"/>
			<point x="311" y="640" type="line" smooth="yes"/>
			<point x="311" y="682"/>
			<point x="293" y="700"/>
			<point x="251" y="700" type="curve" smooth="yes"/>
			<point x="221" y="700" type="line" smooth="yes"/>
			<point x="179" y="700"/>
			<point x="161" y="682"/>
			<point x="161" y="640" type="curve" smooth="yes"/>
			<point x="161" y="610" type="line" smooth="yes"/>
			<point x="161" y="568"/>
			<point x="179" y="550"/>
		</contour>
	</outline>
</glyph>
<glyph name="AE" format="2">
	<advance width="727"/>
	<unicode hex="00C6"/>
	<outline>
		<contour>
			<point x="115" y="0" type="curve" smooth="yes"/>
			<point x="261" y="0" type="line"/>
			<point x="261" y="205" type="line"/>
			<point x="145" y="205" type="line" smooth="yes"/>
			<point x="120" y="205"/>
			<point x="109" y="214"/>
			<point x="109" y="232" type="curve" smooth="yes"/>
			<point x="109" y="248"/>
			<point x="117" y="268"/>
			<point x="137" y="298" type="curve" smooth="yes"/>
			<point x="222" y="422" type="line" smooth="yes"/>
			<point x="266" y="486"/>
			<point x="288" y="507"/>
			<point x="316" y="507" type="curve" smooth="yes"/>
			<point x="347" y="507"/>
			<point x="358" y="490"/>
			<point x="358" y="415" type="curve" smooth="yes"/>
			<point x="358" y="100" type="line" smooth="yes"/>
			<point x="358" y="28"/>
			<point x="386" y="0"/>
			<point x="458" y="0" type="curve" smooth="yes"/>
			<point x="589" y="0" type="line" smooth="yes"/>
			<point x="665" y="0"/>
			<point x="687" y="40"/>
			<point x="687" y="95" type="curve" smooth="yes"/>
			<point x="687" y="290" type="line"/>
			<point x="637" y="290" type="line"/>
			<point x="637" y="220"/>
			<point x="621" y="200"/>
			<point x="567" y="200" type="curve" smooth="yes"/>
			<point x="478" y="200" type="line" smooth="yes"/>
			<point x="424" y="200"/>
			<point x="408" y="221"/>
			<point x="408" y="290" type="curve" smooth="yes"/>
			<point x="408" y="415" type="line" smooth="yes"/>
			<point x="408" y="485"/>
			<point x="424" y="505"/>
			<point x="478" y="505" type="curve" smooth="yes"/>
			<point x="567" y="505" type="line" smooth="yes"/>
			<point x="621" y="505"/>
			<point x="637" y="485"/>
			<point x="637" y="415" type="curve"/>
			<point x="687" y="415" type="line"/>
			<point x="687" y="606" type="line" smooth="yes"/>
			<point x="687" y="671"/>
			<point x="666" y="700"/>
			<point x="597" y="700" type="curve" smooth="yes"/>
			<point x="458" y="700" type="line" smooth="yes"/>
			<point x="376" y="700"/>
			<point x="348" y="691"/>
			<point x="293" y="612" type="curve" smooth="yes"/>
			<point x="77" y="299" type="line" smooth="yes"/>
			<point x="28" y="228"/>
			<point x="15" y="192"/>
			<point x="15" y="142" type="curve" smooth="yes"/>
			<point x="15" y="100" type="line" smooth="yes"/>
			<point x="15" y="28"/>
			<point x="43" y="0"/>
		</contour>
		<contour>
			<point x="133" y="315" type="line"/>
			<point x="577" y="315" type="line"/>
			<point x="577" y="365" type="line"/>
			<point x="133" y="365" type="line"/>
		</contour>
	</outline>
</glyph>
<glyph name="Eth" format="2">
	<advance width="450"/>
	<unicode hex="00D0"/>
	<outline>
		<contour>
			<point x="0" y="335" type="line"/>
			<point x="240" y="335" type="line"/>
			<point x="240" y="385" type="line"/>
			<point x="0" y="385" type="line"/>
		</contour>
		<component base="D"/>
	</outline>
</glyph>
<glyph name="Oslash" format="2">
	<advance width="452"/>
	<unicode hex="00D8"/>
	<outline>
		<contour>
			<point x="20" y="-51" type="line"/>
			<point x="75" y="-51" type="line"/>
			<point x="436" y="760" type="line"/>
			<point x="381" y="760" type="line"/>
		</contour>
		<component base="o"/>
	</outline>
</glyph>
<glyph name="Thorn" format="2">
	<advance width="407"/>
	<unicode hex="00DE"/>
	<outline>
		<contour>
			<point x="155" y="0" type="curve" smooth="yes"/>
			<point x="210" y="0" type="line"/>
			<point x="210" y="200" type="line"/>
			<point x="175" y="200" type="line" smooth="yes"/>
			<point x="121" y="200"/>
			<point x="105" y="221"/>
			<point x="105" y="290" type="curve" smooth="yes"/>
			<point x="105" y="410" type="line" smooth="yes"/>
			<point x="105" y="479"/>
			<point x="121" y="500"/>
			<point x="175" y="500" type="curve" smooth="yes"/>
			<point x="210" y="500" type="line"/>
			<point x="210" y="700" type="line"/>
			<point x="155" y="700" type="line" smooth="yes"/>
			<point x="83" y="700"/>
			<point x="55" y="672"/>
			<point x="55" y="600" type="curve" smooth="yes"/>
			<point x="55" y="100" type="line" smooth="yes"/>
			<point x="55" y="28"/>
			<point x="83" y="0"/>
		</contour>
		<contour>
			<point x="82" y="262" type="line"/>
			<point x="274" y="262" type="line" smooth="yes"/>
			<point x="340" y="262"/>
			<point x="377" y="292"/>
			<point x="377" y="350" type="curve" smooth="yes"/>
			<point x="377" y="408"/>
			<point x="340" y="438"/>
			<point x="274" y="438" type="curve" smooth="yes"/>
			<point x="82" y="438" type="line"/>
			<point x="82" y="388" type="line"/>
			<point x="279" y="388" type="line" smooth="yes"/>
			<point x="312" y="388"/>
			<point x="327" y="378"/>
			<point x="327" y="350" type="curve" smooth="yes"/>
			<point x="327" y="322"/>
			<point x="312" y="312"/>
			<point x="279" y="312" type="curve" smooth="yes"/>
			<point x="82" y="312" type="line"/>
		</contour>
	</outline>
</glyph>
<glyph name="oslash" format="2">
	<advance width="452"/>
	<unicode hex="00F8"/>
	<outline>
		<contour>
			<point x="66" y="-71" type="line"/>
			<point x="432" y="751" type="line"/>
			<point x="386" y="771" type="line"/>
			<point x="20" y="-51" type="line"/>
		</contour>
		<component base="o"/>
	</outline>
</glyph>
<glyph name="Gcommaaccent" format="2">
	<advance width="467"/>
	<unicode hex="0122"/>
	<anchor x="234" y="0" name="bottom"/>
	<anchor x="234" y="700" name="top"/>
	<outline>
		<contour>
			<point x="246" y="0" type="curve" smooth="yes"/>
			<point x="367" y="0"/>
			<point x="417" y="41"/>
			<point x="417" y="134" type="curve" smooth="yes"/>
			<point x="417" y="355" type="line"/>
			<point x="212" y="355" type="line"/>
			<point x="212" y="305" type="line"/>
			<point x="322" y="305" type="line" smooth="yes"/>
			<point x="357" y="305"/>
			<point x="367" y="297"/>
			<point x="367" y="270" type="curve" smooth="yes"/>
			<point x="367" y="218"/>
			<point x="333" y="190"/>
			<point x="262" y="190" type="curve" smooth="yes"/>
			<point x="216" y="190" type="line" smooth="yes"/>
			<point x="136" y="190"/>
			<point x="105" y="237"/>
			<point x="105" y="320" type="curve" smooth="yes"/>
			<point x="105" y="385" type="line" smooth="yes"/>
			<point x="105" y="468"/>
			<point x="136" y="515"/>
			<point x="216" y="515" type="curve" smooth="yes"/>
			<point x="262" y="515" type="line" smooth="yes"/>
			<point x="333" y="515"/>
			<point x="367" y="487"/>
			<point x="367" y="435" type="curve" smooth="yes"/>
			<point x="367" y="410" type="line"/>
			<point x="417" y="410" type="line"/>
			<point x="417" y="576" type="line" smooth="yes"/>
			<point x="417" y="669"/>
			<point x="367" y="710"/>
			<point x="246" y="710" type="curve" smooth="yes"/>
			<point x="122" y="710"/>
			<point x="50" y="666"/>
			<point x="50" y="517" type="curve" smooth="yes"/>
			<point x="50" y="193" type="line" smooth="yes"/>
			<point x="50" y="44"/>
			<point x="122" y="0"/>
		</contour>
		<component base="commaaccentcomb" xOffset="126"/>
	</outline>
</glyph>
<glyph name="Hbar" format="2">
	<advance width="490"/>
	<unicode hex="0126"/>
	<outline>
		<contour>
			<point x="280" y="0" type="line"/>
			<point x="335" y="0" type="line" smooth="yes"/>
			<point x="407" y="0"/>
			<point x="435" y="28"/>
			<point x="435" y="100" type="curve" smooth="yes"/>
			<point x="435" y="600" type="line" smooth="yes"/>
			<point x="435" y="672"/>
			<point x="407" y="700"/>
			<point x="335" y="700" type="curve" smooth="yes"/>
			<point x="280" y="700" type="line"/>
			<point x="280" y="545" type="line"/>
			<point x="315" y="545" type="line" smooth="yes"/>
			<point x="369" y="545"/>
			<point x="385" y="524"/>
			<point x="385" y="455" type="curve" smooth="yes"/>
			<point x="385" y="295" type="line" smooth="yes"/>
			<point x="385" y="226"/>
			<point x="369" y="205"/>
			<point x="315" y="205" type="curve" smooth="yes"/>
			<point x="280" y="205" type="line"/>
		</contour>
		<contour>
			<point x="155" y="0" type="curve" smooth="yes"/>
			<point x="210" y="0" type="line"/>
			<point x="210" y="205" type="line"/>
			<point x="175" y="205" type="line" smooth="yes"/>
			<point x="121" y="205"/>
			<point x="105" y="226"/>
			<point x="105" y="295" type="curve" smooth="yes"/>
			<point x="105" y="455" type="line" smooth="yes"/>
			<point x="105" y="524"/>
			<point x="121" y="545"/>
			<point x="175" y="545" type="curve" smooth="yes"/>
			<point x="210" y="545" type="line"/>
			<point x="210" y="700" type="line"/>
			<point x="155" y="700" type="line" smooth="yes"/>
			<point x="83" y="700"/>
			<point x="55" y="672"/>
			<point x="55" y="600" type="curve" smooth="yes"/>
			<point x="55" y="100" type="line" smooth="yes"/>
			<point x="55" y="28"/>
			<point x="83" y="0"/>
		</contour>
		<contour>
			<point x="91" y="335" type="line"/>
			<point x="402" y="335" type="line"/>
			<point x="402" y="385" type="line"/>
			<point x="91" y="385" type="line"/>
		</contour>
		<contour>
			<point x="0" y="440" type="line"/>
			<point x="490" y="440" type="line"/>
			<point x="490" y="485" type="line"/>
			<point x="0" y="485" type="line"/>
		</contour>
	</outline>
</glyph>
<glyph name="Lcaron" format="2">
	<advance width="332"/>
	<unicode hex="013D"/>
	<outline>
		<contour>
			<point x="237" y="475" type="line"/>
			<point x="287" y="475" type="line"/>
			<point x="312" y="700" type="line"/>
			<point x="257" y="700" type="line"/>
		</contour>
		<component base="L"/>
	</outline>
</glyph>
<glyph name="Ldot" format="2">
	<advance width="332"/>
	<unicode hex="013F"/>
	<outline>
		<contour>
			<point x="254" y="344" type="curve" smooth="yes"/>
			<point x="280" y="344" type="line" smooth="yes"/>
			<point x="317" y="344"/>
			<point x="332" y="360"/>
			<point x="332" y="396" type="curve" smooth="yes"/>
			<point x="332" y="422" type="line" smooth="yes"/>
			<point x="332" y="459"/>
			<point x="317" y="475"/>
			<point x="280" y="475" type="curve" smooth="yes"/>
			<point x="254" y="475" type="line" smooth="yes"/>
			<point x="217" y="475"/>
			<point x="202" y="459"/>
			<point x="202" y="422" type="curve" smooth="yes"/>
			<point x="202" y="396" type="line" smooth="yes"/>
			<point x="202" y="360"/>
			<point x="217" y="344"/>
		</contour>
		<component base="L"/>
	</outline>
</glyph>
<glyph name="Lslash" format="2">
	<advance width="332"/>
	<unicode hex="0141"/>
	<outline>
		<contour>
			<point x="0" y="286" type="line"/>
			<point x="211" y="356" type="line"/>
			<point x="211" y="407" type="line"/>
			<point x="0" y="337" type="line"/>
		</contour>
		<component base="L"/>
	</outline>
</glyph>
<glyph name="Eng" format="2">
	<advance width="480"/>
	<unicode hex="014A"/>
	<outline>
		<contour>
			<point x="321" y="-200" type="curve" smooth="yes"/>
			<point x="389" y="-200"/>
			<point x="425" y="-158"/>
			<point x="425" y="-62" type="curve" smooth="yes"/>
			<point x="425" y="605" type="line" smooth="yes"/>
			<point x="425" y="677"/>
			<point x="397" y="705"/>
			<point x="325" y="705" type="curve" smooth="yes"/>
			<point x="307" y="705" type="line"/>
			<point x="307" y="503" type="line"/>
			<point x="329" y="503" type="line" smooth="yes"/>
			<point x="361" y="503"/>
			<point x="375" y="487"/>
			<point x="375" y="430" type="curve" smooth="yes"/>
			<point x="375" y="252" type="line" smooth="yes"/>
			<point x="375" y="196"/>
			<point x="372" y="191"/>
			<point x="362" y="191" type="curve" smooth="yes"/>
			<point x="353" y="191"/>
			<point x="349" y="199"/>
			<point x="336" y="238" type="curve" smooth="yes"/>
			<point x="219" y="592" type="line" smooth="yes"/>
			<point x="189" y="683"/>
			<point x="170" y="705"/>
			<point x="129" y="705" type="curve" smooth="yes"/>
			<point x="79" y="705"/>
			<point x="55" y="657"/>
			<point x="55" y="582" type="curve" smooth="yes"/>
			<point x="55" y="100" type="line" smooth="yes"/>
			<point x="55" y="28"/>
			<point x="83" y="0"/>
			<point x="155" y="0" type="curve"/>
			<point x="155" y="202" type="line"/>
			<point x="151" y="202" type="line" smooth="yes"/>
			<point x="119" y="202"/>
			<point x="105" y="218"/>
			<point x="105" y="275" type="curve" smooth="yes"/>
			<point x="105" y="403" type="line" smooth="yes"/>
			<point x="105" y="449"/>
			<point x="117" y="465"/>
			<point x="162" y="465" type="curve" smooth="yes"/>
			<point x="195" y="465"/>
			<point x="214" y="447"/>
			<point x="235" y="383" type="curve" smooth="yes"/>
			<point x="321" y="124" type="line" smooth="yes"/>
			<point x="340" y="68"/>
			<point x="344" y="50"/>
			<point x="344" y="31" type="curve" smooth="yes"/>
			<point x="344" y="9"/>
			<point x="335" y="0"/>
			<point x="311" y="0" type="curve"/>
			<point x="265" y="0"/>
			<point x="248" y="20"/>
			<point x="248" y="96" type="curve"/>
			<point x="198" y="96" type="line"/>
			<point x="198" y="-84" type="line" smooth="yes"/>
			<point x="198" y="-152"/>
			<point x="241" y="-200"/>
		</contour>
	</outline>
</glyph>
<glyph name="OE" format="2">
	<advance width="721"/>
	<unicode hex="0152"/>
	<outline>
		<contour>
			<point x="226" y="-10" type="curve" smooth="yes"/>
			<point x="335" y="-10"/>
			<point x="392" y="32"/>
			<point x="392" y="163" type="curve" smooth="yes"/>
			<point x="392" y="537" type="line" smooth="yes"/>
			<point x="392" y="670"/>
			<point x="335" y="710"/>
			<point x="226" y="710" type="curve" smooth="yes"/>
			<point x="117" y="710"/>
			<point x="50" y="677"/>
			<point x="50" y="537" type="curve" smooth="yes"/>
			<point x="50" y="163" type="line" smooth="yes"/>
			<point x="50" y="31"/>
			<point x="117" y="-10"/>
		</contour>
		<contour>
			<point x="231" y="190" type="curve" smooth="yes"/>
			<point x="221" y="190" type="line"/>
			<point x="144" y="190"/>
			<point x="100" y="227"/>
			<point x="100" y="305" type="curve" smooth="yes"/>
			<point x="100" y="400" type="line" smooth="yes"/>
			<point x="100" y="478"/>
			<point x="144" y="515"/>
			<point x="221" y="515" type="curve" smooth="yes"/>
			<point x="231" y="515" type="line" smooth="yes"/>
			<point x="308" y="515"/>
			<point x="352" y="478"/>
			<point x="352" y="400" type="curve" smooth="yes"/>
			<point x="352" y="305" type="line" smooth="yes"/>
			<point x="352" y="227"/>
			<point x="308" y="190"/>
		</contour>
		<contour>
			<point x="383" y="335" type="line"/>
			<point x="571" y="335" type="line"/>
			<point x="571" y="385" type="line"/>
			<point x="383" y="385" type="line"/>
		</contour>
		<contour>
			<point x="472" y="0" type="curve" smooth="yes"/>
			<point x="583" y="0" type="line" smooth="yes"/>
			<point x="659" y="0"/>
			<point x="681" y="40"/>
			<point x="681" y="95" type="curve" smooth="yes"/>
			<point x="681" y="290" type="line"/>
			<point x="631" y="290" type="line"/>
			<point x="631" y="220"/>
			<point x="615" y="200"/>
			<point x="561" y="200" type="curve" smooth="yes"/>
			<point x="472" y="200" type="line" smooth="yes"/>
			<point x="418" y="200"/>
			<point x="402" y="221"/>
			<point x="402" y="290" type="curve" smooth="yes"/>
			<point x="402" y="415" type="line" smooth="yes"/>
			<point x="402" y="485"/>
			<point x="418" y="505"/>
			<point x="472" y="505" type="curve" smooth="yes"/>
			<point x="561" y="505" type="line" smooth="yes"/>
			<point x="615" y="505"/>
			<point x="631" y="485"/>
			<point x="631" y="415" type="curve"/>
			<point x="681" y="415" type="line"/>
			<point x="681" y="606" type="line" smooth="yes"/>
			<point x="681" y="671"/>
			<point x="660" y="700"/>
			<point x="591" y="700" type="curve" smooth="yes"/>
			<point x="472" y="700" type="line" smooth="yes"/>
			<point x="396" y="700"/>
			<point x="362" y="652"/>
			<point x="362" y="540" type="curve" smooth="yes"/>
			<point x="362" y="160" type="line" smooth="yes"/>
			<point x="362" y="46"/>
			<point x="396" y="0"/>
		</contour>
	</outline>
</glyph>
<glyph name="gravecomb" format="2">
	<advance width="0"/>
	<unicode hex="0300"/>
	<anchor x="128" y="700" name="_top"/>
	<anchor x="128" y="870" name="top"/>
	<outline>
		<contour>
			<point x="156" y="760" type="curve" smooth="yes"/>
			<point x="206" y="760" type="line"/>
			<point x="206" y="810" type="line"/>
			<point x="156" y="810" type="line" smooth="yes"/>
			<point x="103" y="810"/>
			<point x="90" y="828"/>
			<point x="90" y="880" type="curve"/>
			<point x="30" y="880" type="line"/>
			<point x="30" y="793"/>
			<point x="72" y="760"/>
		</contour>
	</outline>
</glyph>
<glyph name="tildecomb" format="2">
	<advance width="0"/>
	<unicode hex="0303"/>
	<anchor x="173" y="700" name="_top"/>
	<anchor x="173" y="880" name="top"/>
	<outline>
		<contour>
			<point x="40" y="760" type="curve"/>
			<point x="90" y="760" type="line"/>
			<point x="90" y="802"/>
			<point x="97" y="830"/>
			<point x="120" y="830" type="curve" smooth="yes"/>
			<point x="153" y="830"/>
			<point x="159" y="760"/>
			<point x="225" y="760" type="curve" smooth="yes"/>
			<point x="274" y="760"/>
			<point x="305" y="798"/>
			<point x="305" y="880" type="curve"/>
			<point x="255" y="880" type="line"/>
			<point x="255" y="838"/>
			<point x="248" y="810"/>
			<point x="225" y="810" type="curve" smooth="yes"/>
			<point x="192" y="810"/>
			<point x="186" y="880"/>
			<point x="120" y="880" type="curve" smooth="yes"/>
			<point x="71" y="880"/>
			<point x="40" y="842"/>
		</contour>
	</outline>
</glyph>
<glyph name="Germandbls" format="2">
	<advance width="454"/>
	<unicode hex="1E9E"/>
	<outline>
		<contour>
			<point x="155" y="0" type="curve" smooth="yes"/>
			<point x="173" y="0" type="line"/>
			<point x="173" y="200" type="line"/>
			<point x="151" y="200" type="line" smooth="yes"/>
			<point x="119" y="200"/>
			<point x="105" y="222"/>
			<point x="105" y="273" type="curve" smooth="yes"/>
			<point x="105" y="420" type="line" smooth="yes"/>
			<point x="105" y="488"/>
			<point x="115" y="505"/>
			<point x="156" y="505" type="curve" smooth="yes"/>
			<point x="238" y="505" type="line" smooth="yes"/>
			<point x="263" y="505"/>
			<point x="275" y="493"/>
			<point x="275" y="473" type="curve" smooth="yes"/>
			<point x="275" y="462"/>
			<point x="268" y="446"/>
			<point x="255" y="431" type="curve" smooth="yes"/>
			<point x="195" y="361" type="line"/>
			<point x="211" y="331" type="line"/>
			<point x="271" y="331" type="line" smooth="yes"/>
			<point x="350" y="331"/>
			<point x="368" y="307"/>
			<point x="368" y="267" type="curve" smooth="yes"/>
			<point x="368" y="219"/>
			<point x="331" y="200"/>
			<point x="240" y="200" type="curve"/>
			<point x="280" y="0" type="line"/>
			<point x="395" y="0"/>
			<point x="429" y="34"/>
			<point x="429" y="145" type="curve" smooth="yes"/>
			<point x="429" y="215" type="line" smooth="yes"/>
			<point x="429" y="324"/>
			<point x="387" y="378"/>
			<point x="288" y="378" type="curve" smooth="yes"/>
			<point x="284" y="378"/>
			<point x="282" y="379"/>
			<point x="282" y="382" type="curve" smooth="yes"/>
			<point x="282" y="384"/>
			<point x="283" y="387"/>
			<point x="292" y="397" type="curve" smooth="yes"/>
			<point x="355" y="470" type="line" smooth="yes"/>
			<point x="398" y="520"/>
			<point x="419" y="568"/>
			<point x="419" y="615" type="curve" smooth="yes"/>
			<point x="419" y="675"/>
			<point x="391" y="700"/>
			<point x="326" y="700" type="curve" smooth="yes"/>
			<point x="155" y="700" type="line" smooth="yes"/>
			<point x="83" y="700"/>
			<point x="55" y="672"/>
			<point x="55" y="600" type="curve" smooth="yes"/>
			<point x="55" y="100" type="line" smooth="yes"/>
			<point x="55" y="28"/>
			<point x="83" y="0"/>
		</contour>
	</outline>
</glyph>
<glyph name="endash" format="2">
	<advance width="520"/>
	<unicode hex="2013"/>
	<outline>
		<contour>
			<point x="10" y="325" type="line"/>
			<point x="510" y="325" type="line"/>
			<point x="510" y="375" type="line"/>
			<point x="10" y="375" type="line"/>
		</contour>
	</outline>
</glyph>
<glyph name="quoteleft" format="2">
	<advance width="230"/>
	<unicode hex="2018"/>
	<outline>
		<contour>
			<point x="40" y="600" type="curve"/>
			<point x="40" y="510" type="line"/>
			<point x="100" y="510" type="line"/>
			<point x="100" y="600" type="line"/>
			<point x="100" y="642"/>
			<point x="113" y="660"/>
			<point x="166" y="660" type="curve" smooth="yes"/>
			<point x="200" y="660" type="line"/>
			<point x="200" y="710" type="line"/>
			<point x="166" y="710" type="line" smooth="yes"/>
			<point x="82" y="710"/>
			<point x="40" y="677"/>
		</contour>
		<contour>
			<point x="100" y="435" type="curve" smooth="yes"/>
			<point x="130" y="435" type="line" smooth="yes"/>
			<point x="172" y="435"/>
			<point x="190" y="453"/>
			<point x="190" y="495" type="curve" smooth="yes"/>
			<point x="190" y="525" type="line" smooth="yes"/>
			<point x="190" y="567"/>
			<point x="172" y="585"/>
			<point x="130" y="585" type="curve" smooth="yes"/>
			<point x="100" y="585" type="line" smooth="yes"/>
			<point x="58" y="585"/>
			<point x="40" y="567"/>
			<point x="40" y="525" type="curve" smooth="yes"/>
			<point x="40" y="495" type="line" smooth="yes"/>
			<point x="40" y="453"/>
			<point x="58" y="435"/>
		</contour>
	</outline>
</glyph>
<glyph name="quotedblleft" format="2">
	<advance width="390"/>
	<unicode hex="201C"/>
	<outline>
		<contour>
			<point x="220" y="600" type="curve"/>
			<point x="220" y="510" type="line"/>
			<point x="280" y="510" type="line"/>
			<point x="280" y="600" type="line"/>
			<point x="280" y="642"/>
			<point x="293" y="660"/>
			<point x="346" y="660" type="curve" smooth="yes"/>
			<point x="360" y="660" type="line"/>
			<point x="360" y="710" type="line"/>
			<point x="346" y="710" type="line" smooth="yes"/>
			<point x="262" y="710"/>
			<point x="220" y="677"/>
		</contour>
		<contour>
			<point x="100" y="435" type="curve" smooth="yes"/>
			<point x="110" y="435" type="line" smooth="yes"/>
			<point x="152" y="435"/>
			<point x="170" y="453"/>
			<point x="170" y="495" type="curve" smooth="yes"/>
			<point x="170" y="525" type="line" smooth="yes"/>
			<point x="170" y="567"/>
			<point x="152" y="585"/>
			<point x="110" y="585" type="curve" smooth="yes"/>
			<point x="100" y="585" type="line" smooth="yes"/>
			<point x="58" y="585"/>
			<point x="40" y="567"/>
			<point x="40" y="525" type="curve" smooth="yes"/>
			<point x="40" y="495" type="line" smooth="yes"/>
			<point x="40" y="453"/>
			<point x="58" y="435"/>
		</contour>
		<contour>
			<point x="40" y="600" type="curve"/>
			<point x="40" y="510" type="line"/>
			<point x="100" y="510" type="line"/>
			<point x="100" y="600" type="line"/>
			<point x="100" y="642"/>
			<point x="113" y="660"/>
			<point x="166" y="660" type="curve" smooth="yes"/>
			<point x="180" y="660" type="line"/>
			<point x="180" y="710" type="line"/>
			<point x="166" y="710" type="line" smooth="yes"/>
			<point x="82" y="710"/>
			<point x="40" y="677"/>
		</contour>
		<contour>
			<point x="280" y="435" type="curve" smooth="yes"/>
			<point x="290" y="435" type="line" smooth="yes"/>
			<point x="332" y="435"/>
			<point x="350" y="453"/>
			<point x="350" y="495" type="curve" smooth="yes"/>
			<point x="350" y="525" type="line" smooth="yes"/>
			<point x="350" y="567"/>
			<point x="332" y="585"/>
			<point x="290" y="585" type="curve" smooth="yes"/>
			<point x="280" y="585" type="line" smooth="yes"/>
			<point x="238" y="585"/>
			<point x="220" y="567"/>
			<point x="220" y="525" type="curve" smooth="yes"/>
			<point x="220" y="495" type="line" smooth="yes"/>
			<point x="220" y="453"/>
			<point x="238" y="435"/>
		</contour>
	</outline>
</glyph>
<glyph name="quotedblbase" format="2">
	<advance width="390"/>
	<unicode hex="201E"/>
	<outline>
		<contour>
			<point x="210" y="-125" type="line"/>
			<point x="224" y="-125" type="line" smooth="yes"/>
			<point x="308" y="-125"/>
			<point x="350" y="-92"/>
			<point x="350" y="-15" type="curve"/>
			<point x="350" y="75" type="line"/>
			<point x="290" y="75" type="line"/>
			<point x="290" y="-15" type="line"/>
			<point x="290" y="-57"/>
			<point x="277" y="-75"/>
			<point x="224" y="-75" type="curve" smooth="yes"/>
			<point x="210" y="-75" type="line"/>
		</contour>
		<contour>
			<point x="30" y="-125" type="line"/>
			<point x="44" y="-125" type="line" smooth="yes"/>
			<point x="128" y="-125"/>
			<point x="170" y="-92"/>
			<point x="170" y="-15" type="curve"/>
			<point x="170" y="75" type="line"/>
			<point x="110" y="75" type="line"/>
			<point x="110" y="-15" type="line"/>
			<point x="110" y="-57"/>
			<point x="97" y="-75"/>
			<point x="44" y="-75" type="curve" smooth="yes"/>
			<point x="30" y="-75" type="line"/>
		</contour>
		<contour>
			<point x="100" y="0" type="curve" smooth="yes"/>
			<point x="110" y="0" type="line" smooth="yes"/>
			<point x="152" y="0"/>
			<point x="170" y="18"/>
			<point x="170" y="60" type="curve" smooth="yes"/>
			<point x="170" y="90" type="line" smooth="yes"/>
			<point x="170" y="132"/>
			<point x="152" y="150"/>
			<point x="110" y="150" type="curve" smooth="yes"/>
			<point x="100" y="150" type="line" smooth="yes"/>
			<point x="58" y="150"/>
			<point x="40" y="132"/>
			<point x="40" y="90" type="curve" smooth="yes"/>
			<point x="40" y="60" type="line" smooth="yes"/>
			<point x="40" y="18"/>
			<point x="58" y="0"/>
		</contour>
		<contour>
			<point x="280" y="0" type="curve" smooth="yes"/>
			<point x="290" y="0" type="line" smooth="yes"/>
			<point x="332" y="0"/>
			<point x="350" y="18"/>
			<point x="350" y="60" type="curve" smooth="yes"/>
			<point x="350" y="90" type="line" smooth="yes"/>
			<point x="350" y="132"/>
			<point x="332" y="150"/>
			<point x="290" y="150" type="curve" smooth="yes"/>
			<point x="280" y="150" type="line" smooth="yes"/>
			<point x="238" y="150"/>
			<point x="220" y="132"/>
			<point x="220" y="90" type="curve" smooth="yes"/>
			<point x="220" y="60" type="line" smooth="yes"/>
			<point x="220" y="18"/>
			<point x="238" y="0"/>
		</contour>
	</outline>
</glyph>
<glyph name="ellipsis" format="2">
	<advance width="690"/>
	<unicode hex="2026"/>
	<outline>
		<contour>
			<point x="100" y="0" type="curve" smooth="yes"/>
			<point x="130" y="0" type="line" smooth="yes"/>
			<point x="172" y="0"/>
			<point x="190" y="18"/>
			<point x="190" y="60" type="curve" smooth="yes"/>
			<point x="190" y="90" type="line" smooth="yes"/>
			<point x="190" y="132"/>
			<point x="172" y="150"/>
			<point x="130" y="150" type="curve" smooth="yes"/>
			<point x="100" y="150" type="line" smooth="yes"/>
			<point x="58" y="150"/>
			<point x="40" y="132"/>
			<point x="40" y="90" type="curve" smooth="yes"/>
			<point x="40" y="60" type="line" smooth="yes"/>
			<point x="40" y="18"/>
			<point x="58" y="0"/>
		</contour>
		<contour>
			<point x="330" y="0" type="curve" smooth="yes"/>
			<point x="360" y="0" type="line" smooth="yes"/>
			<point x="402" y="0"/>
			<point x="420" y="18"/>
			<point x="420" y="60" type="curve" smooth="yes"/>
			<point x="420" y="90" type="line" smooth="yes"/>
			<point x="420" y="132"/>
			<point x="402" y="150"/>
			<point x="360" y="150" type="curve" smooth="yes"/>
			<point x="330" y="150" type="line" smooth="yes"/>
			<point x="288" y="150"/>
			<point x="270" y="132"/>
			<point x="270" y="90" type="curve" smooth="yes"/>
			<point x="270" y="60" type="line" smooth="yes"/>
			<point x="270" y="18"/>
			<point x="288" y="0"/>
		</contour>
		<contour>
			<point x="560" y="0" type="curve" smooth="yes"/>
			<point x="590" y="0" type="line" smooth="yes"/>
			<point x="632" y="0"/>
			<point x="650" y="18"/>
			<point x="650" y="60" type="curve" smooth="yes"/>
			<point x="650" y="90" type="line" smooth="yes"/>
			<point x="650" y="132"/>
			<point x="632" y="150"/>
			<point x="590" y="150" type="curve" smooth="yes"/>
			<point x="560" y="150" type="line" smooth="yes"/>
			<point x="518" y="150"/>
			<point x="500" y="132"/>
			<point x="500" y="90" type="curve" smooth="yes"/>
			<point x="500" y="60" type="line" smooth="yes"/>
			<point x="500" y="18"/>
			<point x="518" y="0"/>
		</contour>
	</outline>
</glyph>
<glyph name="guilsinglright" format="2">
	<advance width="408"/>
	<unicode hex="203A"/>
	<outline>
		<contour>
			<point x="0" y="0" type="line"/>
			<point x="70" y="0" type="line"/>
			<point x="408" y="350" type="line"/>
			<point x="70" y="700" type="line"/>
			<point x="0" y="700" type="line"/>
			<point x="338" y="350" type="line"/>
		</contour>
	</outline>
</glyph>
<glyph name="euro" format="2">
	<advance width="471"/>
	<unicode hex="20AC"/>
	<outline>
		<contour>
			<point x="269" y="0" type="curve" smooth="yes"/>
			<point x="380" y="0"/>
			<point x="427" y="41"/>
			<point x="427" y="134" type="curve" smooth="yes"/>
			<point x="427" y="265" type="line"/>
			<point x="377" y="265" type="line"/>
			<point x="377" y="217"/>
			<point x="357" y="190"/>
			<point x="285" y="190" type="curve" smooth="yes"/>
			<point x="259" y="190" type="line" smooth="yes"/>
			<point x="187" y="190"/>
			<point x="155" y="225"/>
			<point x="155" y="300" type="curve" smooth="yes"/>
			<point x="155" y="395" type="line" smooth="yes"/>
			<point x="155" y="484"/>
			<point x="189" y="515"/>
			<point x="259" y="515" type="curve" smooth="yes"/>
			<point x="285" y="515" type="line" smooth="yes"/>
			<point x="354" y="515"/>
			<point x="377" y="490"/>
			<point x="377" y="440" type="curve"/>
			<point x="427" y="440" type="line"/>
			<point x="427" y="566" type="line" smooth="yes"/>
			<point x="427" y="659"/>
			<point x="380" y="700"/>
			<point x="269" y="700" type="curve" smooth="yes"/>
			<point x="162" y="700"/>
			<point x="100" y="656"/>
			<point x="100" y="517" type="curve" smooth="yes"/>
			<point x="100" y="183" type="line" smooth="yes"/>
			<point x="100" y="44"/>
			<point x="162" y="0"/>
		</contour>
		<contour>
			<point x="44" y="280" type="line"/>
			<point x="282" y="280" type="line"/>
			<point x="282" y="325" type="line"/>
			<point x="44" y="325" type="line"/>
		</contour>
		<contour>
			<point x="44" y="371" type="line"/>
			<point x="282" y="371" type="line"/>
			<point x="282" y="416" type="line"/>
			<point x="44" y="416" type="line"/>
		</contour>
	</outline>
</glyph>
<glyph name="K.ss01" format="2">
	<advance width="470"/>
	<anchor x="249" y="0" name="bottom"/>
	<anchor x="235" y="700" name="top"/>
	<outline>
		<contour>
			<point x="86" y="278" type="line"/>
			<point x="277" y="348" type="line" smooth="yes"/>
			<point x="376" y="384"/>
			<point x="405" y="424"/>
			<point x="405" y="517" type="curve" smooth="yes"/>
			<point x="405" y="600" type="line" smooth="yes"/>
			<point x="405" y="672"/>
			<point x="377" y="700"/>
			<point x="305" y="700" type="curve" smooth="yes"/>
			<point x="280" y="700" type="line"/>
			<point x="280" y="500" type="line"/>
			<point x="306" y="500" type="line" smooth="yes"/>
			<point x="334" y="500"/>
			<point x="345" y="489"/>
			<point x="345" y="472" type="curve" smooth="yes"/>
			<point x="345" y="443"/>
			<point x="329" y="420"/>
			<point x="241" y="388" type="curve" smooth="yes"/>
			<point x="69" y="325" type="line"/>
		</contour>
		<contour>
			<point x="155" y="0" type="curve" smooth="yes"/>
			<point x="210" y="0" type="line"/>
			<point x="210" y="205" type="line"/>
			<point x="175" y="205" type="line" smooth="yes"/>
			<point x="121" y="205"/>
			<point x="105" y="226"/>
			<point x="105" y="295" type="curve" smooth="yes"/>
			<point x="105" y="410" type="line" smooth="yes"/>
			<point x="105" y="479"/>
			<point x="121" y="500"/>
			<point x="175" y="500" type="curve" smooth="yes"/>
			<point x="210" y="500" type="line"/>
			<point x="210" y="700" type="line"/>
			<point x="155" y="700" type="line" smooth="yes"/>
			<point x="83" y="700"/>
			<point x="55" y="672"/>
			<point x="55" y="600" type="curve" smooth="yes"/>
			<point x="55" y="100" type="line" smooth="yes"/>
			<point x="55" y="28"/>
			<point x="83" y="0"/>
		</contour>
		<contour>
			<point x="374" y="0" type="curve" smooth="yes"/>
			<point x="424" y="0"/>
			<point x="450" y="27"/>
			<point x="450" y="97" type="curve" smooth="yes"/>
			<point x="450" y="276" type="line"/>
			<point x="408" y="276" type="line"/>
			<point x="408" y="221"/>
			<point x="392" y="200"/>
			<point x="353" y="200" type="curve" smooth="yes"/>
			<point x="320" y="200"/>
			<point x="305" y="211"/>
			<point x="290" y="254" type="curve" smooth="yes"/>
			<point x="257" y="352" type="line"/>
			<point x="208" y="352" type="line"/>
			<point x="282" y="98" type="line" smooth="yes"/>
			<point x="304" y="21"/>
			<point x="327" y="0"/>
		</contour>
	</outline>
</glyph>
<glyph name="X.ss01" format="2">
	<advance width="486"/>
	<outline>
		<contour>
			<point x="390" y="-5" type="curve" smooth="yes"/>
			<point x="440" y="-5"/>
			<point x="466" y="22"/>
			<point x="466" y="92" type="curve" smooth="yes"/>
			<point x="466" y="271" type="line"/>
			<point x="416" y="271" type="line"/>
			<point x="416" y="216"/>
			<point x="400" y="195"/>
			<point x="369" y="195" type="curve" smooth="yes"/>
			<point x="336" y="195"/>
			<point x="320" y="207"/>
			<point x="306" y="249" type="curve" smooth="yes"/>
			<point x="186" y="607" type="line" smooth="yes"/>
			<point x="160" y="684"/>
			<point x="141" y="705"/>
			<point x="101" y="705" type="curve" smooth="yes"/>
			<point x="51" y="705"/>
			<point x="25" y="678"/>
			<point x="25" y="608" type="curve" smooth="yes"/>
			<point x="25" y="429" type="line"/>
			<point x="75" y="429" type="line"/>
			<point x="75" y="484"/>
			<point x="91" y="505"/>
			<point x="122" y="505" type="curve" smooth="yes"/>
			<point x="155" y="505"/>
			<point x="170" y="494"/>
			<point x="185" y="451" type="curve" smooth="yes"/>
			<point x="307" y="93" type="line" smooth="yes"/>
			<point x="333" y="17"/>
			<point x="352" y="-5"/>
		</contour>
		<contour>
			<point x="122" y="0" type="curve" smooth="yes"/>
			<point x="203" y="0" type="line"/>
			<point x="203" y="200" type="line"/>
			<point x="164" y="200" type="line" smooth="yes"/>
			<point x="149" y="200"/>
			<point x="140" y="208"/>
			<point x="140" y="221" type="curve" smooth="yes"/>
			<point x="140" y="233"/>
			<point x="147" y="246"/>
			<point x="163" y="259" type="curve" smooth="yes"/>
			<point x="255" y="335" type="line"/>
			<point x="234" y="380" type="line"/>
			<point x="131" y="295" type="line" smooth="yes"/>
			<point x="33" y="214"/>
			<point x="15" y="174"/>
			<point x="15" y="105" type="curve" smooth="yes"/>
			<point x="15" y="29"/>
			<point x="49" y="0"/>
		</contour>
		<contour>
			<point x="264" y="330" type="line"/>
			<point x="355" y="405" type="line" smooth="yes"/>
			<point x="453" y="486"/>
			<point x="471" y="526"/>
			<point x="471" y="595" type="curve" smooth="yes"/>
			<point x="471" y="671"/>
			<point x="437" y="700"/>
			<point x="364" y="700" type="curve" smooth="yes"/>
			<point x="283" y="700" type="line"/>
			<point x="283" y="505" type="line"/>
			<point x="313" y="505" type="line" smooth="yes"/>
			<point x="340" y="505"/>
			<point x="350" y="497"/>
			<point x="350" y="481" type="curve" smooth="yes"/>
			<point x="350" y="469"/>
			<point x="344" y="458"/>
			<point x="329" y="446" type="curve" smooth="yes"/>
			<point x="243" y="375" type="line"/>
		</contour>
	</outline>
</glyph>
<glyph name=".notdef" format="2">
	<advance width="484"/>
	<outline>
		<contour>
			<point x="150" y="0" type="curve" smooth="yes"/>
			<point x="334" y="0" type="line" smooth="yes"/>
			<point x="406" y="0"/>
			<point x="434" y="28"/>
			<point x="434" y="100" type="curve" smooth="yes"/>
			<point x="434" y="600" type="line" smooth="yes"/>
			<point x="434" y="672"/>
			<point x="406" y="700"/>
			<point x="334" y="700" type="curve" smooth="yes"/>
			<point x="150" y="700" type="line" smooth="yes"/>
			<point x="78" y="700"/>
			<point x="50" y="672"/>
			<point x="50" y="600" type="curve" smooth="yes"/>
			<point x="50" y="100" type="line" smooth="yes"/>
			<point x="50" y="28"/>
			<point x="78" y="0"/>
		</contour>
		<contour>
			<point x="238" y="100" type="curve" smooth="yes"/>
			<point x="216" y="100" type="line"/>
			<point x="186" y="100"/>
			<point x="173" y="113"/>
			<point x="173" y="143" type="curve" smooth="yes"/>
			<point x="173" y="164" type="line" smooth="yes"/>
			<point x="173" y="194"/>
			<point x="186" y="207"/>
			<point x="216" y="207" type="curve" smooth="yes"/>
			<point x="238" y="207" type="line" smooth="yes"/>
			<point x="268" y="207"/>
			<point x="280" y="194"/>
			<point x="280" y="164" type="curve" smooth="yes"/>
			<point x="280" y="143" type="line" smooth="yes"/>
			<point x="280" y="113"/>
			<point x="268" y="100"/>
		</contour>
		<contour>
			<point x="245" y="279" type="curve"/>
			<point x="209" y="279" type="line"/>
			<point x="209" y="314"/>
			<point x="216" y="332"/>
			<point x="240" y="356" type="curve" smooth="yes"/>
			<point x="263" y="379" type="line" smooth="yes"/>
			<point x="283" y="399"/>
			<point x="290" y="413"/>
			<point x="290" y="431" type="curve" smooth="yes"/>
			<point x="290" y="451"/>
			<point x="274" y="461"/>
			<point x="243" y="461" type="curve" smooth="yes"/>
			<point x="215" y="461" type="line" smooth="yes"/>
			<point x="170" y="461"/>
			<point x="160" y="446"/>
			<point x="160" y="406" type="curve"/>
			<point x="124" y="406" type="line"/>
			<point x="124" y="509" type="line" smooth="yes"/>
			<point x="124" y="566"/>
			<point x="157" y="600"/>
			<point x="207" y="600" type="curve" smooth="yes"/>
			<point x="268" y="600" type="line" smooth="yes"/>
			<point x="343" y="600"/>
			<point x="381" y="572"/>
			<point x="381" y="509" type="curve" smooth="yes"/>
			<point x="381" y="460"/>
			<point x="366" y="431"/>
			<point x="303" y="368" type="curve" smooth="yes"/>
			<point x="267" y="332" type="line" smooth="yes"/>
			<point x="250" y="315"/>
			<point x="245" y="301"/>
		</contour>
	</outline>
</glyph>
